<svg width="500" height="500" viewBox="0 0 500 500" fill="none" xmlns="http://www.w3.org/2000/svg">
<g clip-path="url(#clip0_4_2)">
<rect width="500" height="500" rx="250" fill="#EF2A68"/>
<g filter="url(#filter0_d_4_2)">
<path d="M60.3359 320C59.5026 320 59.0859 319.333 59.0859 318C59.0859 316.833 59.5026 315.417 60.3359 313.75C61.1693 312.083 62.2526 310.75 63.5859 309.75C64.9193 308.917 66.3359 308 67.8359 307C69.1693 306.167 70.5026 305.417 71.8359 304.75C71.6693 304.417 71.5859 303.833 71.5859 303C71.5859 301.667 72.0026 301 72.8359 301C73.3359 301 74.0859 301.583 75.0859 302.75C88.0859 295.583 100.753 290.333 113.086 287V286.25C113.086 281.583 111.836 277.25 109.336 273.25C107.003 269.25 104.003 265.167 100.336 261C96.6693 256.833 92.9193 252.25 89.0859 247.25C85.4193 242.25 82.0859 236.583 79.0859 230.25C76.2526 223.75 74.4193 216.167 73.5859 207.5C73.4193 206.5 73.3359 205.5 73.3359 204.5C73.3359 203.5 73.3359 202.5 73.3359 201.5C73.3359 190.833 75.7526 181.167 80.5859 172.5C85.4193 163.833 91.6693 156.417 99.3359 150.25C107.169 143.917 115.586 139 124.586 135.5C131.753 132.667 139.919 131.25 149.086 131.25C152.419 131.25 155.586 131.5 158.586 132C167.419 133.667 173.586 136.583 177.086 140.75C180.586 144.917 182.336 149.083 182.336 153.25C182.336 156.417 181.503 159.25 179.836 161.75C178.169 164.25 177.003 165.5 176.336 165.5C175.836 165.5 175.586 165.167 175.586 164.5C175.586 164.167 175.669 163.667 175.836 163C176.169 162.167 176.419 161.333 176.586 160.5C177.086 159.167 177.419 158 177.586 157C177.753 156 177.836 155 177.836 154C177.836 148.667 175.336 144.75 170.336 142.25C165.503 139.583 160.336 138.25 154.836 138.25C154.169 138.25 153.419 138.25 152.586 138.25C151.753 138.25 150.919 138.333 150.086 138.5C139.586 140 129.669 143.833 120.336 150C111.003 156.167 103.086 164.25 96.5859 174.25C90.2526 184.083 86.0859 195.417 84.0859 208.25C83.9193 209.417 83.7526 210.583 83.5859 211.75C83.5859 212.917 83.5859 214 83.5859 215C83.5859 222.833 85.2526 230 88.5859 236.5C91.9193 242.833 95.8359 248.75 100.336 254.25C105.003 259.75 109.419 265.083 113.586 270.25C117.753 275.25 120.586 280.25 122.086 285.25C125.419 284.583 128.669 284.167 131.836 284C135.003 283.833 138.086 283.833 141.086 284C143.419 284.333 144.586 285 144.586 286C144.586 287 142.919 287.5 139.586 287.5C137.253 287.5 134.669 287.667 131.836 288C129.003 288.167 126.003 288.667 122.836 289.5C123.003 290 123.086 290.5 123.086 291C123.086 291.5 123.086 291.917 123.086 292.25C123.086 293.917 122.836 295.667 122.336 297.5C120.169 304.167 116.253 309.083 110.586 312.25C104.919 315.417 99.1693 317 93.3359 317C87.6693 317 82.9193 315.833 79.0859 313.5C77.7526 312.833 76.5026 311.917 75.3359 310.75C73.1693 311.917 71.0026 313.25 68.8359 314.75C66.5026 316.25 64.2526 317.75 62.0859 319.25C61.4193 319.75 60.8359 320 60.3359 320ZM91.0859 312.5C95.9193 312.5 100.669 310.917 105.336 307.75C110.003 304.75 112.586 299.667 113.086 292.5C102.086 296.333 90.7526 301.667 79.0859 308.5C81.7526 311.167 85.7526 312.5 91.0859 312.5ZM160.598 342C158.931 342 157.181 340.917 155.348 338.75C153.681 336.75 152.098 333.917 150.598 330.25C148.098 324.25 146.348 317.917 145.348 311.25C144.348 304.75 143.848 298.167 143.848 291.5C143.848 284.167 144.348 277 145.348 270C146.348 263 147.431 256.667 148.598 251C149.431 247 150.431 242.75 151.598 238.25C152.764 233.75 153.848 230.167 154.848 227.5C153.848 227.667 152.264 228.25 150.098 229.25C147.931 230.25 145.681 231.25 143.348 232.25C141.181 233.25 139.264 233.75 137.598 233.75C135.098 233.75 133.848 232.333 133.848 229.5C133.848 228 134.348 226.667 135.348 225.5C136.514 224.333 137.931 223.417 139.598 222.75C142.931 221.25 146.598 220.167 150.598 219.5C154.598 218.667 157.264 217.833 158.598 217L165.098 200.5C165.764 198.833 166.931 196.167 168.598 192.5C170.431 188.667 172.514 184.583 174.848 180.25C177.348 175.917 179.764 172 182.098 168.5C183.931 165.833 185.681 163.75 187.348 162.25C189.014 160.583 190.848 159.75 192.848 159.75C195.848 159.75 197.348 160.917 197.348 163.25C197.348 164.583 196.764 166.583 195.598 169.25C194.598 171.917 192.681 175.417 189.848 179.75C186.681 184.75 183.431 189.75 180.098 194.75C176.931 199.583 174.181 204.667 171.848 210C171.681 210.667 171.264 211.75 170.598 213.25C170.098 214.583 169.681 215.417 169.348 215.75L174.348 215C175.681 214.833 177.181 214.75 178.848 214.75C180.514 214.583 182.348 214.5 184.348 214.5C187.181 214.5 189.848 214.667 192.348 215C195.014 215.167 197.181 215.583 198.848 216.25C199.681 216.583 200.431 217 201.098 217.5C201.931 217.833 202.348 218.167 202.348 218.5C202.348 219.167 200.181 219.5 195.848 219.5C193.348 219.5 189.764 219.917 185.098 220.75C180.598 221.583 175.431 222.917 169.598 224.75C166.764 225.583 164.848 226.75 163.848 228.25C162.848 229.75 161.514 233.333 159.848 239C157.348 248 155.348 256.667 153.848 265C152.348 273.167 151.181 281.5 150.348 290C150.181 291.667 150.014 293.417 149.848 295.25C149.848 297.083 149.848 299.083 149.848 301.25C149.848 306.917 150.348 312.833 151.348 319C152.514 325.167 154.181 330.5 156.348 335C156.848 336 157.348 336.917 157.848 337.75C158.514 338.583 159.264 339.167 160.098 339.5C161.264 340 161.848 340.583 161.848 341.25C161.848 341.75 161.431 342 160.598 342ZM189.59 300C186.59 300 184.423 298.75 183.09 296.25C181.757 293.583 181.09 290.5 181.09 287C181.09 282.5 181.84 277.25 183.34 271.25C185.007 265.25 187.173 259.083 189.84 252.75C192.507 246.25 195.507 240.333 198.84 235C202.34 229.5 206.007 225.083 209.84 221.75C213.673 218.25 217.423 216.5 221.09 216.5C224.423 216.5 227.257 218 229.59 221C232.09 223.833 233.34 227.083 233.34 230.75C233.34 232.917 233.007 234.75 232.34 236.25C231.673 237.583 230.923 238.25 230.09 238.25C229.423 238.25 228.84 237.75 228.34 236.75C226.673 232.917 224.84 230.167 222.84 228.5C221.007 226.833 219.09 226 217.09 226C213.757 226 210.423 227.917 207.09 231.75C203.923 235.417 201.34 239.667 199.34 244.5C197.673 248.167 196.09 252.583 194.59 257.75C193.257 262.75 192.09 267.75 191.09 272.75C190.257 277.583 189.84 281.583 189.84 284.75C189.84 290.417 191.173 293.25 193.84 293.25C197.173 293.25 201.423 289.583 206.59 282.25C210.423 276.917 213.84 270.75 216.84 263.75C220.007 256.75 222.673 250.667 224.84 245.5C225.673 243.833 226.59 242.75 227.59 242.25C228.59 241.75 229.507 241.5 230.34 241.5C232.34 241.5 233.59 242.333 234.09 244C234.757 245.667 235.09 247.083 235.09 248.25C235.09 252.583 234.673 256.5 233.84 260C233.007 263.333 232.59 267.417 232.59 272.25C232.59 275.75 232.84 279 233.34 282C234.007 284.833 235.09 286.25 236.59 286.25C238.423 286.25 240.757 283.917 243.59 279.25C244.257 277.917 245.257 277.25 246.59 277.25C248.09 277.25 248.84 278 248.84 279.5C248.84 281.667 247.34 284 244.34 286.5C241.34 288.833 238.34 290 235.34 290C231.34 290 228.507 288.333 226.84 285C224.007 279.5 222.59 274.583 222.59 270.25C222.59 265.75 222.507 262.667 222.34 261C221.507 263 219.923 266.167 217.59 270.5C215.257 274.667 212.507 279.083 209.34 283.75C206.173 288.25 202.84 292.083 199.34 295.25C195.84 298.417 192.59 300 189.59 300ZM279.764 314.5C274.43 314.5 270.347 312 267.514 307C264.68 302.167 263.264 296.833 263.264 291C263.264 285.5 264.18 279.75 266.014 273.75C267.847 267.75 270.097 261.833 272.764 256C275.597 250.167 278.514 244.833 281.514 240C278.514 241.167 275.68 241.75 273.014 241.75C271.68 241.75 270.514 241.583 269.514 241.25C268.514 240.917 267.68 240.667 267.014 240.5C266.18 242.5 264.68 245.833 262.514 250.5C260.514 255.167 258.347 260.083 256.014 265.25C253.847 270.25 251.93 274.5 250.264 278C247.597 283.667 245.264 286.5 243.264 286.5C242.264 286.5 241.764 285.833 241.764 284.5C241.764 283.5 242.18 282.167 243.014 280.5C246.847 273.333 250.43 266.25 253.764 259.25C257.264 252.25 260.43 245.5 263.264 239C262.93 238.167 262.597 237.083 262.264 235.75C261.93 234.25 261.764 232.667 261.764 231C261.764 229.167 261.93 227.25 262.264 225.25C262.764 223.083 263.43 221 264.264 219C264.764 217.833 265.68 216.167 267.014 214C268.347 211.667 269.847 209.583 271.514 207.75C273.18 205.75 274.764 204.75 276.264 204.75C279.097 204.75 280.514 206.25 280.514 209.25C280.514 212.083 279.597 215.333 277.764 219C276.097 222.667 274.347 226.083 272.514 229.25C270.68 232.25 269.764 234.5 269.764 236C269.764 237.333 270.43 238 271.764 238C273.597 238 275.847 237.083 278.514 235.25C281.347 233.25 283.597 231.417 285.264 229.75C286.097 228.917 287.43 227.667 289.264 226C291.097 224.167 292.847 223.25 294.514 223.25C296.18 223.25 297.264 223.75 297.764 224.75C298.43 225.75 298.764 226.917 298.764 228.25C298.764 229.75 298.097 231.667 296.764 234C295.43 236.167 293.847 238.333 292.014 240.5C290.347 242.667 288.93 244.5 287.764 246C285.43 249.5 282.764 253.917 279.764 259.25C276.764 264.583 274.18 270.333 272.014 276.5C269.847 282.5 268.764 288.25 268.764 293.75C268.764 297.417 269.68 301.25 271.514 305.25C273.347 309.25 275.847 311.25 279.014 311.25C281.847 311.25 284.847 309.75 288.014 306.75C291.347 303.75 294.43 300.167 297.264 296C300.264 291.833 302.847 287.833 305.014 284C307.347 280.167 308.93 277.5 309.764 276C310.097 275.167 310.68 274.167 311.514 273C312.347 271.667 313.347 271 314.514 271C315.514 271 316.014 271.5 316.014 272.5C316.014 273.333 315.764 274.333 315.264 275.5C314.93 276.5 314.597 277.417 314.264 278.25C312.764 281.75 310.93 285.417 308.764 289.25C306.597 293.083 305.097 295.667 304.264 297C301.93 300.833 298.43 304.667 293.764 308.5C289.264 312.5 284.597 314.5 279.764 314.5ZM332.473 342C330.806 342 329.056 340.917 327.223 338.75C325.556 336.75 323.973 333.917 322.473 330.25C319.973 324.25 318.223 317.917 317.223 311.25C316.223 304.75 315.723 298.167 315.723 291.5C315.723 284.167 316.223 277 317.223 270C318.223 263 319.306 256.667 320.473 251C321.306 247 322.306 242.75 323.473 238.25C324.639 233.75 325.723 230.167 326.723 227.5C325.723 227.667 324.139 228.25 321.973 229.25C319.806 230.25 317.556 231.25 315.223 232.25C313.056 233.25 311.139 233.75 309.473 233.75C306.973 233.75 305.723 232.333 305.723 229.5C305.723 228 306.223 226.667 307.223 225.5C308.389 224.333 309.806 223.417 311.473 222.75C314.806 221.25 318.473 220.167 322.473 219.5C326.473 218.667 329.139 217.833 330.473 217L336.973 200.5C337.639 198.833 338.806 196.167 340.473 192.5C342.306 188.667 344.389 184.583 346.723 180.25C349.223 175.917 351.639 172 353.973 168.5C355.806 165.833 357.556 163.75 359.223 162.25C360.889 160.583 362.723 159.75 364.723 159.75C367.723 159.75 369.223 160.917 369.223 163.25C369.223 164.583 368.639 166.583 367.473 169.25C366.473 171.917 364.556 175.417 361.723 179.75C358.556 184.75 355.306 189.75 351.973 194.75C348.806 199.583 346.056 204.667 343.723 210C343.556 210.667 343.139 211.75 342.473 213.25C341.973 214.583 341.556 215.417 341.223 215.75L346.223 215C347.556 214.833 349.056 214.75 350.723 214.75C352.389 214.583 354.223 214.5 356.223 214.5C359.056 214.5 361.723 214.667 364.223 215C366.889 215.167 369.056 215.583 370.723 216.25C371.556 216.583 372.306 217 372.973 217.5C373.806 217.833 374.223 218.167 374.223 218.5C374.223 219.167 372.056 219.5 367.723 219.5C365.223 219.5 361.639 219.917 356.973 220.75C352.473 221.583 347.306 222.917 341.473 224.75C338.639 225.583 336.723 226.75 335.723 228.25C334.723 229.75 333.389 233.333 331.723 239C329.223 248 327.223 256.667 325.723 265C324.223 273.167 323.056 281.5 322.223 290C322.056 291.667 321.889 293.417 321.723 295.25C321.723 297.083 321.723 299.083 321.723 301.25C321.723 306.917 322.223 312.833 323.223 319C324.389 325.167 326.056 330.5 328.223 335C328.723 336 329.223 336.917 329.723 337.75C330.389 338.583 331.139 339.167 331.973 339.5C333.139 340 333.723 340.583 333.723 341.25C333.723 341.75 333.306 342 332.473 342ZM354.965 400.25C348.465 400.25 343.215 398.5 339.215 395C335.215 391.667 333.215 387.167 333.215 381.5C333.215 376.5 334.632 371.5 337.465 366.5C340.132 361.667 343.465 357 347.465 352.5C351.632 348.167 355.798 344.333 359.965 341C367.298 335.167 375.965 329.667 385.965 324.5C396.132 319.333 407.548 315.417 420.215 312.75C420.382 310.917 420.465 309 420.465 307C420.465 305.167 420.465 303.333 420.465 301.5C420.465 288 419.548 275.75 417.715 264.75C415.882 253.583 413.798 244 411.465 236C404.798 252.5 398.882 266.25 393.715 277.25C388.548 288.083 385.715 297.167 385.215 304.5C385.048 305.667 384.298 306.917 382.965 308.25C381.798 309.75 380.465 310.5 378.965 310.5C377.965 310.5 376.965 309.917 375.965 308.75C375.132 307.75 374.548 305.917 374.215 303.25C374.215 302.583 374.132 301.667 373.965 300.5C373.965 299.333 373.965 297.25 373.965 294.25C373.965 291.25 373.965 286.75 373.965 280.75C373.965 275.417 373.798 270 373.465 264.5C373.298 258.833 372.715 253.583 371.715 248.75C370.715 243.917 369.215 240 367.215 237C365.382 234 362.798 232.5 359.465 232.5C356.798 232.5 354.298 233.5 351.965 235.5C349.798 237.5 347.965 239.5 346.465 241.5C344.965 243.333 343.798 244.25 342.965 244.25C342.298 244.25 341.965 244 341.965 243.5C341.965 243.167 342.215 242.667 342.715 242C343.048 241.167 343.382 240.5 343.715 240C345.215 237.833 347.132 235.667 349.465 233.5C351.965 231.333 354.548 229.5 357.215 228C360.048 226.333 362.548 225.5 364.715 225.5C369.215 225.5 372.715 227.833 375.215 232.5C377.715 237 379.465 242.75 380.465 249.75C381.632 256.75 382.215 263.917 382.215 271.25C382.215 274.417 382.048 278.25 381.715 282.75C381.382 287.25 380.965 291.083 380.465 294.25C383.798 288.083 388.048 279.5 393.215 268.5C398.382 257.5 404.048 245.083 410.215 231.25L407.965 224.75V224C407.965 222.333 408.465 221.083 409.465 220.25C410.632 219.417 411.798 219 412.965 219C413.965 219 414.965 219.25 415.965 219.75C416.965 220.25 417.632 221 417.965 222C419.965 226.5 421.632 232.667 422.965 240.5C424.465 248.333 425.548 256.833 426.215 266C427.048 275 427.465 283.917 427.465 292.75C427.465 299.417 427.215 305.667 426.715 311.5C430.882 310.667 435.298 310 439.965 309.5C444.798 309 448.965 308.75 452.465 308.75C454.632 308.75 455.715 309.083 455.715 309.75C455.715 311.083 453.965 311.917 450.465 312.25C446.465 312.583 442.382 313 438.215 313.5C434.215 314.167 430.132 315 425.965 316C422.465 335.167 416.965 350.5 409.465 362C402.132 373.667 394.548 382.417 386.715 388.25C381.048 392.417 375.465 395.417 369.965 397.25C364.632 399.25 359.632 400.25 354.965 400.25ZM352.965 395C355.798 395 359.048 394.417 362.715 393.25C366.548 392.083 370.548 390.25 374.715 387.75C388.048 379.917 398.382 370 405.715 358C413.048 346.167 417.715 332.667 419.715 317.5C409.882 320.167 399.965 324 389.965 329C380.132 334.167 371.132 340.167 362.965 347C359.298 350.167 355.632 353.75 351.965 357.75C348.465 361.75 345.548 365.833 343.215 370C340.882 374.333 339.715 378.5 339.715 382.5C339.715 386.333 340.882 389.333 343.215 391.5C345.548 393.833 348.798 395 352.965 395Z" fill="#FAE84B"/>
</g>
<g filter="url(#filter1_d_4_2)">
<path d="M57.3359 317C56.5026 317 56.0859 316.333 56.0859 315C56.0859 313.833 56.5026 312.417 57.3359 310.75C58.1693 309.083 59.2526 307.75 60.5859 306.75C61.9193 305.917 63.3359 305 64.8359 304C66.1693 303.167 67.5026 302.417 68.8359 301.75C68.6693 301.417 68.5859 300.833 68.5859 300C68.5859 298.667 69.0026 298 69.8359 298C70.3359 298 71.0859 298.583 72.0859 299.75C85.0859 292.583 97.7526 287.333 110.086 284V283.25C110.086 278.583 108.836 274.25 106.336 270.25C104.003 266.25 101.003 262.167 97.3359 258C93.6693 253.833 89.9193 249.25 86.0859 244.25C82.4193 239.25 79.0859 233.583 76.0859 227.25C73.2526 220.75 71.4193 213.167 70.5859 204.5C70.4193 203.5 70.3359 202.5 70.3359 201.5C70.3359 200.5 70.3359 199.5 70.3359 198.5C70.3359 187.833 72.7526 178.167 77.5859 169.5C82.4193 160.833 88.6693 153.417 96.3359 147.25C104.169 140.917 112.586 136 121.586 132.5C128.753 129.667 136.919 128.25 146.086 128.25C149.419 128.25 152.586 128.5 155.586 129C164.419 130.667 170.586 133.583 174.086 137.75C177.586 141.917 179.336 146.083 179.336 150.25C179.336 153.417 178.503 156.25 176.836 158.75C175.169 161.25 174.003 162.5 173.336 162.5C172.836 162.5 172.586 162.167 172.586 161.5C172.586 161.167 172.669 160.667 172.836 160C173.169 159.167 173.419 158.333 173.586 157.5C174.086 156.167 174.419 155 174.586 154C174.753 153 174.836 152 174.836 151C174.836 145.667 172.336 141.75 167.336 139.25C162.503 136.583 157.336 135.25 151.836 135.25C151.169 135.25 150.419 135.25 149.586 135.25C148.753 135.25 147.919 135.333 147.086 135.5C136.586 137 126.669 140.833 117.336 147C108.003 153.167 100.086 161.25 93.5859 171.25C87.2526 181.083 83.0859 192.417 81.0859 205.25C80.9193 206.417 80.7526 207.583 80.5859 208.75C80.5859 209.917 80.5859 211 80.5859 212C80.5859 219.833 82.2526 227 85.5859 233.5C88.9193 239.833 92.8359 245.75 97.3359 251.25C102.003 256.75 106.419 262.083 110.586 267.25C114.753 272.25 117.586 277.25 119.086 282.25C122.419 281.583 125.669 281.167 128.836 281C132.003 280.833 135.086 280.833 138.086 281C140.419 281.333 141.586 282 141.586 283C141.586 284 139.919 284.5 136.586 284.5C134.253 284.5 131.669 284.667 128.836 285C126.003 285.167 123.003 285.667 119.836 286.5C120.003 287 120.086 287.5 120.086 288C120.086 288.5 120.086 288.917 120.086 289.25C120.086 290.917 119.836 292.667 119.336 294.5C117.169 301.167 113.253 306.083 107.586 309.25C101.919 312.417 96.1693 314 90.3359 314C84.6693 314 79.9193 312.833 76.0859 310.5C74.7526 309.833 73.5026 308.917 72.3359 307.75C70.1693 308.917 68.0026 310.25 65.8359 311.75C63.5026 313.25 61.2526 314.75 59.0859 316.25C58.4193 316.75 57.8359 317 57.3359 317ZM88.0859 309.5C92.9193 309.5 97.6693 307.917 102.336 304.75C107.003 301.75 109.586 296.667 110.086 289.5C99.0859 293.333 87.7526 298.667 76.0859 305.5C78.7526 308.167 82.7526 309.5 88.0859 309.5ZM157.598 339C155.931 339 154.181 337.917 152.348 335.75C150.681 333.75 149.098 330.917 147.598 327.25C145.098 321.25 143.348 314.917 142.348 308.25C141.348 301.75 140.848 295.167 140.848 288.5C140.848 281.167 141.348 274 142.348 267C143.348 260 144.431 253.667 145.598 248C146.431 244 147.431 239.75 148.598 235.25C149.764 230.75 150.848 227.167 151.848 224.5C150.848 224.667 149.264 225.25 147.098 226.25C144.931 227.25 142.681 228.25 140.348 229.25C138.181 230.25 136.264 230.75 134.598 230.75C132.098 230.75 130.848 229.333 130.848 226.5C130.848 225 131.348 223.667 132.348 222.5C133.514 221.333 134.931 220.417 136.598 219.75C139.931 218.25 143.598 217.167 147.598 216.5C151.598 215.667 154.264 214.833 155.598 214L162.098 197.5C162.764 195.833 163.931 193.167 165.598 189.5C167.431 185.667 169.514 181.583 171.848 177.25C174.348 172.917 176.764 169 179.098 165.5C180.931 162.833 182.681 160.75 184.348 159.25C186.014 157.583 187.848 156.75 189.848 156.75C192.848 156.75 194.348 157.917 194.348 160.25C194.348 161.583 193.764 163.583 192.598 166.25C191.598 168.917 189.681 172.417 186.848 176.75C183.681 181.75 180.431 186.75 177.098 191.75C173.931 196.583 171.181 201.667 168.848 207C168.681 207.667 168.264 208.75 167.598 210.25C167.098 211.583 166.681 212.417 166.348 212.75L171.348 212C172.681 211.833 174.181 211.75 175.848 211.75C177.514 211.583 179.348 211.5 181.348 211.5C184.181 211.5 186.848 211.667 189.348 212C192.014 212.167 194.181 212.583 195.848 213.25C196.681 213.583 197.431 214 198.098 214.5C198.931 214.833 199.348 215.167 199.348 215.5C199.348 216.167 197.181 216.5 192.848 216.5C190.348 216.5 186.764 216.917 182.098 217.75C177.598 218.583 172.431 219.917 166.598 221.75C163.764 222.583 161.848 223.75 160.848 225.25C159.848 226.75 158.514 230.333 156.848 236C154.348 245 152.348 253.667 150.848 262C149.348 270.167 148.181 278.5 147.348 287C147.181 288.667 147.014 290.417 146.848 292.25C146.848 294.083 146.848 296.083 146.848 298.25C146.848 303.917 147.348 309.833 148.348 316C149.514 322.167 151.181 327.5 153.348 332C153.848 333 154.348 333.917 154.848 334.75C155.514 335.583 156.264 336.167 157.098 336.5C158.264 337 158.848 337.583 158.848 338.25C158.848 338.75 158.431 339 157.598 339ZM186.59 297C183.59 297 181.423 295.75 180.09 293.25C178.757 290.583 178.09 287.5 178.09 284C178.09 279.5 178.84 274.25 180.34 268.25C182.007 262.25 184.173 256.083 186.84 249.75C189.507 243.25 192.507 237.333 195.84 232C199.34 226.5 203.007 222.083 206.84 218.75C210.673 215.25 214.423 213.5 218.09 213.5C221.423 213.5 224.257 215 226.59 218C229.09 220.833 230.34 224.083 230.34 227.75C230.34 229.917 230.007 231.75 229.34 233.25C228.673 234.583 227.923 235.25 227.09 235.25C226.423 235.25 225.84 234.75 225.34 233.75C223.673 229.917 221.84 227.167 219.84 225.5C218.007 223.833 216.09 223 214.09 223C210.757 223 207.423 224.917 204.09 228.75C200.923 232.417 198.34 236.667 196.34 241.5C194.673 245.167 193.09 249.583 191.59 254.75C190.257 259.75 189.09 264.75 188.09 269.75C187.257 274.583 186.84 278.583 186.84 281.75C186.84 287.417 188.173 290.25 190.84 290.25C194.173 290.25 198.423 286.583 203.59 279.25C207.423 273.917 210.84 267.75 213.84 260.75C217.007 253.75 219.673 247.667 221.84 242.5C222.673 240.833 223.59 239.75 224.59 239.25C225.59 238.75 226.507 238.5 227.34 238.5C229.34 238.5 230.59 239.333 231.09 241C231.757 242.667 232.09 244.083 232.09 245.25C232.09 249.583 231.673 253.5 230.84 257C230.007 260.333 229.59 264.417 229.59 269.25C229.59 272.75 229.84 276 230.34 279C231.007 281.833 232.09 283.25 233.59 283.25C235.423 283.25 237.757 280.917 240.59 276.25C241.257 274.917 242.257 274.25 243.59 274.25C245.09 274.25 245.84 275 245.84 276.5C245.84 278.667 244.34 281 241.34 283.5C238.34 285.833 235.34 287 232.34 287C228.34 287 225.507 285.333 223.84 282C221.007 276.5 219.59 271.583 219.59 267.25C219.59 262.75 219.507 259.667 219.34 258C218.507 260 216.923 263.167 214.59 267.5C212.257 271.667 209.507 276.083 206.34 280.75C203.173 285.25 199.84 289.083 196.34 292.25C192.84 295.417 189.59 297 186.59 297ZM276.764 311.5C271.43 311.5 267.347 309 264.514 304C261.68 299.167 260.264 293.833 260.264 288C260.264 282.5 261.18 276.75 263.014 270.75C264.847 264.75 267.097 258.833 269.764 253C272.597 247.167 275.514 241.833 278.514 237C275.514 238.167 272.68 238.75 270.014 238.75C268.68 238.75 267.514 238.583 266.514 238.25C265.514 237.917 264.68 237.667 264.014 237.5C263.18 239.5 261.68 242.833 259.514 247.5C257.514 252.167 255.347 257.083 253.014 262.25C250.847 267.25 248.93 271.5 247.264 275C244.597 280.667 242.264 283.5 240.264 283.5C239.264 283.5 238.764 282.833 238.764 281.5C238.764 280.5 239.18 279.167 240.014 277.5C243.847 270.333 247.43 263.25 250.764 256.25C254.264 249.25 257.43 242.5 260.264 236C259.93 235.167 259.597 234.083 259.264 232.75C258.93 231.25 258.764 229.667 258.764 228C258.764 226.167 258.93 224.25 259.264 222.25C259.764 220.083 260.43 218 261.264 216C261.764 214.833 262.68 213.167 264.014 211C265.347 208.667 266.847 206.583 268.514 204.75C270.18 202.75 271.764 201.75 273.264 201.75C276.097 201.75 277.514 203.25 277.514 206.25C277.514 209.083 276.597 212.333 274.764 216C273.097 219.667 271.347 223.083 269.514 226.25C267.68 229.25 266.764 231.5 266.764 233C266.764 234.333 267.43 235 268.764 235C270.597 235 272.847 234.083 275.514 232.25C278.347 230.25 280.597 228.417 282.264 226.75C283.097 225.917 284.43 224.667 286.264 223C288.097 221.167 289.847 220.25 291.514 220.25C293.18 220.25 294.264 220.75 294.764 221.75C295.43 222.75 295.764 223.917 295.764 225.25C295.764 226.75 295.097 228.667 293.764 231C292.43 233.167 290.847 235.333 289.014 237.5C287.347 239.667 285.93 241.5 284.764 243C282.43 246.5 279.764 250.917 276.764 256.25C273.764 261.583 271.18 267.333 269.014 273.5C266.847 279.5 265.764 285.25 265.764 290.75C265.764 294.417 266.68 298.25 268.514 302.25C270.347 306.25 272.847 308.25 276.014 308.25C278.847 308.25 281.847 306.75 285.014 303.75C288.347 300.75 291.43 297.167 294.264 293C297.264 288.833 299.847 284.833 302.014 281C304.347 277.167 305.93 274.5 306.764 273C307.097 272.167 307.68 271.167 308.514 270C309.347 268.667 310.347 268 311.514 268C312.514 268 313.014 268.5 313.014 269.5C313.014 270.333 312.764 271.333 312.264 272.5C311.93 273.5 311.597 274.417 311.264 275.25C309.764 278.75 307.93 282.417 305.764 286.25C303.597 290.083 302.097 292.667 301.264 294C298.93 297.833 295.43 301.667 290.764 305.5C286.264 309.5 281.597 311.5 276.764 311.5ZM329.473 339C327.806 339 326.056 337.917 324.223 335.75C322.556 333.75 320.973 330.917 319.473 327.25C316.973 321.25 315.223 314.917 314.223 308.25C313.223 301.75 312.723 295.167 312.723 288.5C312.723 281.167 313.223 274 314.223 267C315.223 260 316.306 253.667 317.473 248C318.306 244 319.306 239.75 320.473 235.25C321.639 230.75 322.723 227.167 323.723 224.5C322.723 224.667 321.139 225.25 318.973 226.25C316.806 227.25 314.556 228.25 312.223 229.25C310.056 230.25 308.139 230.75 306.473 230.75C303.973 230.75 302.723 229.333 302.723 226.5C302.723 225 303.223 223.667 304.223 222.5C305.389 221.333 306.806 220.417 308.473 219.75C311.806 218.25 315.473 217.167 319.473 216.5C323.473 215.667 326.139 214.833 327.473 214L333.973 197.5C334.639 195.833 335.806 193.167 337.473 189.5C339.306 185.667 341.389 181.583 343.723 177.25C346.223 172.917 348.639 169 350.973 165.5C352.806 162.833 354.556 160.75 356.223 159.25C357.889 157.583 359.723 156.75 361.723 156.75C364.723 156.75 366.223 157.917 366.223 160.25C366.223 161.583 365.639 163.583 364.473 166.25C363.473 168.917 361.556 172.417 358.723 176.75C355.556 181.75 352.306 186.75 348.973 191.75C345.806 196.583 343.056 201.667 340.723 207C340.556 207.667 340.139 208.75 339.473 210.25C338.973 211.583 338.556 212.417 338.223 212.75L343.223 212C344.556 211.833 346.056 211.75 347.723 211.75C349.389 211.583 351.223 211.5 353.223 211.5C356.056 211.5 358.723 211.667 361.223 212C363.889 212.167 366.056 212.583 367.723 213.25C368.556 213.583 369.306 214 369.973 214.5C370.806 214.833 371.223 215.167 371.223 215.5C371.223 216.167 369.056 216.5 364.723 216.5C362.223 216.5 358.639 216.917 353.973 217.75C349.473 218.583 344.306 219.917 338.473 221.75C335.639 222.583 333.723 223.75 332.723 225.25C331.723 226.75 330.389 230.333 328.723 236C326.223 245 324.223 253.667 322.723 262C321.223 270.167 320.056 278.5 319.223 287C319.056 288.667 318.889 290.417 318.723 292.25C318.723 294.083 318.723 296.083 318.723 298.25C318.723 303.917 319.223 309.833 320.223 316C321.389 322.167 323.056 327.5 325.223 332C325.723 333 326.223 333.917 326.723 334.75C327.389 335.583 328.139 336.167 328.973 336.5C330.139 337 330.723 337.583 330.723 338.25C330.723 338.75 330.306 339 329.473 339ZM351.965 397.25C345.465 397.25 340.215 395.5 336.215 392C332.215 388.667 330.215 384.167 330.215 378.5C330.215 373.5 331.632 368.5 334.465 363.5C337.132 358.667 340.465 354 344.465 349.5C348.632 345.167 352.798 341.333 356.965 338C364.298 332.167 372.965 326.667 382.965 321.5C393.132 316.333 404.548 312.417 417.215 309.75C417.382 307.917 417.465 306 417.465 304C417.465 302.167 417.465 300.333 417.465 298.5C417.465 285 416.548 272.75 414.715 261.75C412.882 250.583 410.798 241 408.465 233C401.798 249.5 395.882 263.25 390.715 274.25C385.548 285.083 382.715 294.167 382.215 301.5C382.048 302.667 381.298 303.917 379.965 305.25C378.798 306.75 377.465 307.5 375.965 307.5C374.965 307.5 373.965 306.917 372.965 305.75C372.132 304.75 371.548 302.917 371.215 300.25C371.215 299.583 371.132 298.667 370.965 297.5C370.965 296.333 370.965 294.25 370.965 291.25C370.965 288.25 370.965 283.75 370.965 277.75C370.965 272.417 370.798 267 370.465 261.5C370.298 255.833 369.715 250.583 368.715 245.75C367.715 240.917 366.215 237 364.215 234C362.382 231 359.798 229.5 356.465 229.5C353.798 229.5 351.298 230.5 348.965 232.5C346.798 234.5 344.965 236.5 343.465 238.5C341.965 240.333 340.798 241.25 339.965 241.25C339.298 241.25 338.965 241 338.965 240.5C338.965 240.167 339.215 239.667 339.715 239C340.048 238.167 340.382 237.5 340.715 237C342.215 234.833 344.132 232.667 346.465 230.5C348.965 228.333 351.548 226.5 354.215 225C357.048 223.333 359.548 222.5 361.715 222.5C366.215 222.5 369.715 224.833 372.215 229.5C374.715 234 376.465 239.75 377.465 246.75C378.632 253.75 379.215 260.917 379.215 268.25C379.215 271.417 379.048 275.25 378.715 279.75C378.382 284.25 377.965 288.083 377.465 291.25C380.798 285.083 385.048 276.5 390.215 265.5C395.382 254.5 401.048 242.083 407.215 228.25L404.965 221.75V221C404.965 219.333 405.465 218.083 406.465 217.25C407.632 216.417 408.798 216 409.965 216C410.965 216 411.965 216.25 412.965 216.75C413.965 217.25 414.632 218 414.965 219C416.965 223.5 418.632 229.667 419.965 237.5C421.465 245.333 422.548 253.833 423.215 263C424.048 272 424.465 280.917 424.465 289.75C424.465 296.417 424.215 302.667 423.715 308.5C427.882 307.667 432.298 307 436.965 306.5C441.798 306 445.965 305.75 449.465 305.75C451.632 305.75 452.715 306.083 452.715 306.75C452.715 308.083 450.965 308.917 447.465 309.25C443.465 309.583 439.382 310 435.215 310.5C431.215 311.167 427.132 312 422.965 313C419.465 332.167 413.965 347.5 406.465 359C399.132 370.667 391.548 379.417 383.715 385.25C378.048 389.417 372.465 392.417 366.965 394.25C361.632 396.25 356.632 397.25 351.965 397.25ZM349.965 392C352.798 392 356.048 391.417 359.715 390.25C363.548 389.083 367.548 387.25 371.715 384.75C385.048 376.917 395.382 367 402.715 355C410.048 343.167 414.715 329.667 416.715 314.5C406.882 317.167 396.965 321 386.965 326C377.132 331.167 368.132 337.167 359.965 344C356.298 347.167 352.632 350.75 348.965 354.75C345.465 358.75 342.548 362.833 340.215 367C337.882 371.333 336.715 375.5 336.715 379.5C336.715 383.333 337.882 386.333 340.215 388.5C342.548 390.833 345.798 392 349.965 392Z" fill="white"/>
<path d="M57.3359 317C56.5026 317 56.0859 316.333 56.0859 315C56.0859 313.833 56.5026 312.417 57.3359 310.75C58.1693 309.083 59.2526 307.75 60.5859 306.75C61.9193 305.917 63.3359 305 64.8359 304C66.1693 303.167 67.5026 302.417 68.8359 301.75C68.6693 301.417 68.5859 300.833 68.5859 300C68.5859 298.667 69.0026 298 69.8359 298C70.3359 298 71.0859 298.583 72.0859 299.75C85.0859 292.583 97.7526 287.333 110.086 284V283.25C110.086 278.583 108.836 274.25 106.336 270.25C104.003 266.25 101.003 262.167 97.3359 258C93.6693 253.833 89.9193 249.25 86.0859 244.25C82.4193 239.25 79.0859 233.583 76.0859 227.25C73.2526 220.75 71.4193 213.167 70.5859 204.5C70.4193 203.5 70.3359 202.5 70.3359 201.5C70.3359 200.5 70.3359 199.5 70.3359 198.5C70.3359 187.833 72.7526 178.167 77.5859 169.5C82.4193 160.833 88.6693 153.417 96.3359 147.25C104.169 140.917 112.586 136 121.586 132.5C128.753 129.667 136.919 128.25 146.086 128.25C149.419 128.25 152.586 128.5 155.586 129C164.419 130.667 170.586 133.583 174.086 137.75C177.586 141.917 179.336 146.083 179.336 150.25C179.336 153.417 178.503 156.25 176.836 158.75C175.169 161.25 174.003 162.5 173.336 162.5C172.836 162.5 172.586 162.167 172.586 161.5C172.586 161.167 172.669 160.667 172.836 160C173.169 159.167 173.419 158.333 173.586 157.5C174.086 156.167 174.419 155 174.586 154C174.753 153 174.836 152 174.836 151C174.836 145.667 172.336 141.75 167.336 139.25C162.503 136.583 157.336 135.25 151.836 135.25C151.169 135.25 150.419 135.25 149.586 135.25C148.753 135.25 147.919 135.333 147.086 135.5C136.586 137 126.669 140.833 117.336 147C108.003 153.167 100.086 161.25 93.5859 171.25C87.2526 181.083 83.0859 192.417 81.0859 205.25C80.9193 206.417 80.7526 207.583 80.5859 208.75C80.5859 209.917 80.5859 211 80.5859 212C80.5859 219.833 82.2526 227 85.5859 233.5C88.9193 239.833 92.8359 245.75 97.3359 251.25C102.003 256.75 106.419 262.083 110.586 267.25C114.753 272.25 117.586 277.25 119.086 282.25C122.419 281.583 125.669 281.167 128.836 281C132.003 280.833 135.086 280.833 138.086 281C140.419 281.333 141.586 282 141.586 283C141.586 284 139.919 284.5 136.586 284.5C134.253 284.5 131.669 284.667 128.836 285C126.003 285.167 123.003 285.667 119.836 286.5C120.003 287 120.086 287.5 120.086 288C120.086 288.5 120.086 288.917 120.086 289.25C120.086 290.917 119.836 292.667 119.336 294.5C117.169 301.167 113.253 306.083 107.586 309.25C101.919 312.417 96.1693 314 90.3359 314C84.6693 314 79.9193 312.833 76.0859 310.5C74.7526 309.833 73.5026 308.917 72.3359 307.75C70.1693 308.917 68.0026 310.25 65.8359 311.75C63.5026 313.25 61.2526 314.75 59.0859 316.25C58.4193 316.75 57.8359 317 57.3359 317ZM88.0859 309.5C92.9193 309.5 97.6693 307.917 102.336 304.75C107.003 301.75 109.586 296.667 110.086 289.5C99.0859 293.333 87.7526 298.667 76.0859 305.5C78.7526 308.167 82.7526 309.5 88.0859 309.5ZM157.598 339C155.931 339 154.181 337.917 152.348 335.75C150.681 333.75 149.098 330.917 147.598 327.25C145.098 321.25 143.348 314.917 142.348 308.25C141.348 301.75 140.848 295.167 140.848 288.5C140.848 281.167 141.348 274 142.348 267C143.348 260 144.431 253.667 145.598 248C146.431 244 147.431 239.75 148.598 235.25C149.764 230.75 150.848 227.167 151.848 224.5C150.848 224.667 149.264 225.25 147.098 226.25C144.931 227.25 142.681 228.25 140.348 229.25C138.181 230.25 136.264 230.75 134.598 230.75C132.098 230.75 130.848 229.333 130.848 226.5C130.848 225 131.348 223.667 132.348 222.5C133.514 221.333 134.931 220.417 136.598 219.75C139.931 218.25 143.598 217.167 147.598 216.5C151.598 215.667 154.264 214.833 155.598 214L162.098 197.5C162.764 195.833 163.931 193.167 165.598 189.5C167.431 185.667 169.514 181.583 171.848 177.25C174.348 172.917 176.764 169 179.098 165.5C180.931 162.833 182.681 160.75 184.348 159.25C186.014 157.583 187.848 156.75 189.848 156.75C192.848 156.75 194.348 157.917 194.348 160.25C194.348 161.583 193.764 163.583 192.598 166.25C191.598 168.917 189.681 172.417 186.848 176.75C183.681 181.75 180.431 186.75 177.098 191.75C173.931 196.583 171.181 201.667 168.848 207C168.681 207.667 168.264 208.75 167.598 210.25C167.098 211.583 166.681 212.417 166.348 212.75L171.348 212C172.681 211.833 174.181 211.75 175.848 211.75C177.514 211.583 179.348 211.5 181.348 211.5C184.181 211.5 186.848 211.667 189.348 212C192.014 212.167 194.181 212.583 195.848 213.25C196.681 213.583 197.431 214 198.098 214.5C198.931 214.833 199.348 215.167 199.348 215.5C199.348 216.167 197.181 216.5 192.848 216.5C190.348 216.5 186.764 216.917 182.098 217.75C177.598 218.583 172.431 219.917 166.598 221.75C163.764 222.583 161.848 223.75 160.848 225.25C159.848 226.75 158.514 230.333 156.848 236C154.348 245 152.348 253.667 150.848 262C149.348 270.167 148.181 278.5 147.348 287C147.181 288.667 147.014 290.417 146.848 292.25C146.848 294.083 146.848 296.083 146.848 298.25C146.848 303.917 147.348 309.833 148.348 316C149.514 322.167 151.181 327.5 153.348 332C153.848 333 154.348 333.917 154.848 334.75C155.514 335.583 156.264 336.167 157.098 336.5C158.264 337 158.848 337.583 158.848 338.25C158.848 338.75 158.431 339 157.598 339ZM186.59 297C183.59 297 181.423 295.75 180.09 293.25C178.757 290.583 178.09 287.5 178.09 284C178.09 279.5 178.84 274.25 180.34 268.25C182.007 262.25 184.173 256.083 186.84 249.75C189.507 243.25 192.507 237.333 195.84 232C199.34 226.5 203.007 222.083 206.84 218.75C210.673 215.25 214.423 213.5 218.09 213.5C221.423 213.5 224.257 215 226.59 218C229.09 220.833 230.34 224.083 230.34 227.75C230.34 229.917 230.007 231.75 229.34 233.25C228.673 234.583 227.923 235.25 227.09 235.25C226.423 235.25 225.84 234.75 225.34 233.75C223.673 229.917 221.84 227.167 219.84 225.5C218.007 223.833 216.09 223 214.09 223C210.757 223 207.423 224.917 204.09 228.75C200.923 232.417 198.34 236.667 196.34 241.5C194.673 245.167 193.09 249.583 191.59 254.75C190.257 259.75 189.09 264.75 188.09 269.75C187.257 274.583 186.84 278.583 186.84 281.75C186.84 287.417 188.173 290.25 190.84 290.25C194.173 290.25 198.423 286.583 203.59 279.25C207.423 273.917 210.84 267.75 213.84 260.75C217.007 253.75 219.673 247.667 221.84 242.5C222.673 240.833 223.59 239.75 224.59 239.25C225.59 238.75 226.507 238.5 227.34 238.5C229.34 238.5 230.59 239.333 231.09 241C231.757 242.667 232.09 244.083 232.09 245.25C232.09 249.583 231.673 253.5 230.84 257C230.007 260.333 229.59 264.417 229.59 269.25C229.59 272.75 229.84 276 230.34 279C231.007 281.833 232.09 283.25 233.59 283.25C235.423 283.25 237.757 280.917 240.59 276.25C241.257 274.917 242.257 274.25 243.59 274.25C245.09 274.25 245.84 275 245.84 276.5C245.84 278.667 244.34 281 241.34 283.5C238.34 285.833 235.34 287 232.34 287C228.34 287 225.507 285.333 223.84 282C221.007 276.5 219.59 271.583 219.59 267.25C219.59 262.75 219.507 259.667 219.34 258C218.507 260 216.923 263.167 214.59 267.5C212.257 271.667 209.507 276.083 206.34 280.75C203.173 285.25 199.84 289.083 196.34 292.25C192.84 295.417 189.59 297 186.59 297ZM276.764 311.5C271.43 311.5 267.347 309 264.514 304C261.68 299.167 260.264 293.833 260.264 288C260.264 282.5 261.18 276.75 263.014 270.75C264.847 264.75 267.097 258.833 269.764 253C272.597 247.167 275.514 241.833 278.514 237C275.514 238.167 272.68 238.75 270.014 238.75C268.68 238.75 267.514 238.583 266.514 238.25C265.514 237.917 264.68 237.667 264.014 237.5C263.18 239.5 261.68 242.833 259.514 247.5C257.514 252.167 255.347 257.083 253.014 262.25C250.847 267.25 248.93 271.5 247.264 275C244.597 280.667 242.264 283.5 240.264 283.5C239.264 283.5 238.764 282.833 238.764 281.5C238.764 280.5 239.18 279.167 240.014 277.5C243.847 270.333 247.43 263.25 250.764 256.25C254.264 249.25 257.43 242.5 260.264 236C259.93 235.167 259.597 234.083 259.264 232.75C258.93 231.25 258.764 229.667 258.764 228C258.764 226.167 258.93 224.25 259.264 222.25C259.764 220.083 260.43 218 261.264 216C261.764 214.833 262.68 213.167 264.014 211C265.347 208.667 266.847 206.583 268.514 204.75C270.18 202.75 271.764 201.75 273.264 201.75C276.097 201.75 277.514 203.25 277.514 206.25C277.514 209.083 276.597 212.333 274.764 216C273.097 219.667 271.347 223.083 269.514 226.25C267.68 229.25 266.764 231.5 266.764 233C266.764 234.333 267.43 235 268.764 235C270.597 235 272.847 234.083 275.514 232.25C278.347 230.25 280.597 228.417 282.264 226.75C283.097 225.917 284.43 224.667 286.264 223C288.097 221.167 289.847 220.25 291.514 220.25C293.18 220.25 294.264 220.75 294.764 221.75C295.43 222.75 295.764 223.917 295.764 225.25C295.764 226.75 295.097 228.667 293.764 231C292.43 233.167 290.847 235.333 289.014 237.5C287.347 239.667 285.93 241.5 284.764 243C282.43 246.5 279.764 250.917 276.764 256.25C273.764 261.583 271.18 267.333 269.014 273.5C266.847 279.5 265.764 285.25 265.764 290.75C265.764 294.417 266.68 298.25 268.514 302.25C270.347 306.25 272.847 308.25 276.014 308.25C278.847 308.25 281.847 306.75 285.014 303.75C288.347 300.75 291.43 297.167 294.264 293C297.264 288.833 299.847 284.833 302.014 281C304.347 277.167 305.93 274.5 306.764 273C307.097 272.167 307.68 271.167 308.514 270C309.347 268.667 310.347 268 311.514 268C312.514 268 313.014 268.5 313.014 269.5C313.014 270.333 312.764 271.333 312.264 272.5C311.93 273.5 311.597 274.417 311.264 275.25C309.764 278.75 307.93 282.417 305.764 286.25C303.597 290.083 302.097 292.667 301.264 294C298.93 297.833 295.43 301.667 290.764 305.5C286.264 309.5 281.597 311.5 276.764 311.5ZM329.473 339C327.806 339 326.056 337.917 324.223 335.75C322.556 333.75 320.973 330.917 319.473 327.25C316.973 321.25 315.223 314.917 314.223 308.25C313.223 301.75 312.723 295.167 312.723 288.5C312.723 281.167 313.223 274 314.223 267C315.223 260 316.306 253.667 317.473 248C318.306 244 319.306 239.75 320.473 235.25C321.639 230.75 322.723 227.167 323.723 224.5C322.723 224.667 321.139 225.25 318.973 226.25C316.806 227.25 314.556 228.25 312.223 229.25C310.056 230.25 308.139 230.75 306.473 230.75C303.973 230.75 302.723 229.333 302.723 226.5C302.723 225 303.223 223.667 304.223 222.5C305.389 221.333 306.806 220.417 308.473 219.75C311.806 218.25 315.473 217.167 319.473 216.5C323.473 215.667 326.139 214.833 327.473 214L333.973 197.5C334.639 195.833 335.806 193.167 337.473 189.5C339.306 185.667 341.389 181.583 343.723 177.25C346.223 172.917 348.639 169 350.973 165.5C352.806 162.833 354.556 160.75 356.223 159.25C357.889 157.583 359.723 156.75 361.723 156.75C364.723 156.75 366.223 157.917 366.223 160.25C366.223 161.583 365.639 163.583 364.473 166.25C363.473 168.917 361.556 172.417 358.723 176.75C355.556 181.75 352.306 186.75 348.973 191.75C345.806 196.583 343.056 201.667 340.723 207C340.556 207.667 340.139 208.75 339.473 210.25C338.973 211.583 338.556 212.417 338.223 212.75L343.223 212C344.556 211.833 346.056 211.75 347.723 211.75C349.389 211.583 351.223 211.5 353.223 211.5C356.056 211.5 358.723 211.667 361.223 212C363.889 212.167 366.056 212.583 367.723 213.25C368.556 213.583 369.306 214 369.973 214.5C370.806 214.833 371.223 215.167 371.223 215.5C371.223 216.167 369.056 216.5 364.723 216.5C362.223 216.5 358.639 216.917 353.973 217.75C349.473 218.583 344.306 219.917 338.473 221.75C335.639 222.583 333.723 223.75 332.723 225.25C331.723 226.75 330.389 230.333 328.723 236C326.223 245 324.223 253.667 322.723 262C321.223 270.167 320.056 278.5 319.223 287C319.056 288.667 318.889 290.417 318.723 292.25C318.723 294.083 318.723 296.083 318.723 298.25C318.723 303.917 319.223 309.833 320.223 316C321.389 322.167 323.056 327.5 325.223 332C325.723 333 326.223 333.917 326.723 334.75C327.389 335.583 328.139 336.167 328.973 336.5C330.139 337 330.723 337.583 330.723 338.25C330.723 338.75 330.306 339 329.473 339ZM351.965 397.25C345.465 397.25 340.215 395.5 336.215 392C332.215 388.667 330.215 384.167 330.215 378.5C330.215 373.5 331.632 368.5 334.465 363.5C337.132 358.667 340.465 354 344.465 349.5C348.632 345.167 352.798 341.333 356.965 338C364.298 332.167 372.965 326.667 382.965 321.5C393.132 316.333 404.548 312.417 417.215 309.75C417.382 307.917 417.465 306 417.465 304C417.465 302.167 417.465 300.333 417.465 298.5C417.465 285 416.548 272.75 414.715 261.75C412.882 250.583 410.798 241 408.465 233C401.798 249.5 395.882 263.25 390.715 274.25C385.548 285.083 382.715 294.167 382.215 301.5C382.048 302.667 381.298 303.917 379.965 305.25C378.798 306.75 377.465 307.5 375.965 307.5C374.965 307.5 373.965 306.917 372.965 305.75C372.132 304.75 371.548 302.917 371.215 300.25C371.215 299.583 371.132 298.667 370.965 297.5C370.965 296.333 370.965 294.25 370.965 291.25C370.965 288.25 370.965 283.75 370.965 277.75C370.965 272.417 370.798 267 370.465 261.5C370.298 255.833 369.715 250.583 368.715 245.75C367.715 240.917 366.215 237 364.215 234C362.382 231 359.798 229.5 356.465 229.5C353.798 229.5 351.298 230.5 348.965 232.5C346.798 234.5 344.965 236.5 343.465 238.5C341.965 240.333 340.798 241.25 339.965 241.25C339.298 241.25 338.965 241 338.965 240.5C338.965 240.167 339.215 239.667 339.715 239C340.048 238.167 340.382 237.5 340.715 237C342.215 234.833 344.132 232.667 346.465 230.5C348.965 228.333 351.548 226.5 354.215 225C357.048 223.333 359.548 222.5 361.715 222.5C366.215 222.5 369.715 224.833 372.215 229.5C374.715 234 376.465 239.75 377.465 246.75C378.632 253.75 379.215 260.917 379.215 268.25C379.215 271.417 379.048 275.25 378.715 279.75C378.382 284.25 377.965 288.083 377.465 291.25C380.798 285.083 385.048 276.5 390.215 265.5C395.382 254.5 401.048 242.083 407.215 228.25L404.965 221.75V221C404.965 219.333 405.465 218.083 406.465 217.25C407.632 216.417 408.798 216 409.965 216C410.965 216 411.965 216.25 412.965 216.75C413.965 217.25 414.632 218 414.965 219C416.965 223.5 418.632 229.667 419.965 237.5C421.465 245.333 422.548 253.833 423.215 263C424.048 272 424.465 280.917 424.465 289.75C424.465 296.417 424.215 302.667 423.715 308.5C427.882 307.667 432.298 307 436.965 306.5C441.798 306 445.965 305.75 449.465 305.75C451.632 305.75 452.715 306.083 452.715 306.75C452.715 308.083 450.965 308.917 447.465 309.25C443.465 309.583 439.382 310 435.215 310.5C431.215 311.167 427.132 312 422.965 313C419.465 332.167 413.965 347.5 406.465 359C399.132 370.667 391.548 379.417 383.715 385.25C378.048 389.417 372.465 392.417 366.965 394.25C361.632 396.25 356.632 397.25 351.965 397.25ZM349.965 392C352.798 392 356.048 391.417 359.715 390.25C363.548 389.083 367.548 387.25 371.715 384.75C385.048 376.917 395.382 367 402.715 355C410.048 343.167 414.715 329.667 416.715 314.5C406.882 317.167 396.965 321 386.965 326C377.132 331.167 368.132 337.167 359.965 344C356.298 347.167 352.632 350.75 348.965 354.75C345.465 358.75 342.548 362.833 340.215 367C337.882 371.333 336.715 375.5 336.715 379.5C336.715 383.333 337.882 386.333 340.215 388.5C342.548 390.833 345.798 392 349.965 392Z" fill="url(#paint0_linear_4_2)" fill-opacity="0.2"/>
</g>
</g>
<defs>
<filter id="filter0_d_4_2" x="55.0859" y="131.25" width="404.629" height="277" filterUnits="userSpaceOnUse" color-interpolation-filters="sRGB">
<feFlood flood-opacity="0" result="BackgroundImageFix"/>
<feColorMatrix in="SourceAlpha" type="matrix" values="0 0 0 0 0 0 0 0 0 0 0 0 0 0 0 0 0 0 127 0" result="hardAlpha"/>
<feOffset dy="4"/>
<feGaussianBlur stdDeviation="2"/>
<feComposite in2="hardAlpha" operator="out"/>
<feColorMatrix type="matrix" values="0 0 0 0 0 0 0 0 0 0 0 0 0 0 0 0 0 0 0.25 0"/>
<feBlend mode="normal" in2="BackgroundImageFix" result="effect1_dropShadow_4_2"/>
<feBlend mode="normal" in="SourceGraphic" in2="effect1_dropShadow_4_2" result="shape"/>
</filter>
<filter id="filter1_d_4_2" x="54.3859" y="128.25" width="400.029" height="274.7" filterUnits="userSpaceOnUse" color-interpolation-filters="sRGB">
<feFlood flood-opacity="0" result="BackgroundImageFix"/>
<feColorMatrix in="SourceAlpha" type="matrix" values="0 0 0 0 0 0 0 0 0 0 0 0 0 0 0 0 0 0 127 0" result="hardAlpha"/>
<feOffset dy="4"/>
<feGaussianBlur stdDeviation="0.85"/>
<feComposite in2="hardAlpha" operator="out"/>
<feColorMatrix type="matrix" values="0 0 0 0 0 0 0 0 0 0 0 0 0 0 0 0 0 0 0.45 0"/>
<feBlend mode="normal" in2="BackgroundImageFix" result="effect1_dropShadow_4_2"/>
<feBlend mode="normal" in="SourceGraphic" in2="effect1_dropShadow_4_2" result="shape"/>
</filter>
<linearGradient id="paint0_linear_4_2" x1="248" y1="81" x2="248" y2="416" gradientUnits="userSpaceOnUse">
<stop stop-opacity="0"/>
<stop offset="0.899038" stop-color="#FAE84B"/>
</linearGradient>
<clipPath id="clip0_4_2">
<rect width="500" height="500" rx="250" fill="white"/>
</clipPath>
</defs>
</svg>
