<svg width="500" height="314" viewBox="0 0 500 314" fill="none" xmlns="http://www.w3.org/2000/svg">
<g clip-path="url(#clip0_4_2)">
<g filter="url(#filter0_d_4_2)">
<path d="M60.3359 227C59.5026 227 59.0859 226.333 59.0859 225C59.0859 223.833 59.5026 222.417 60.3359 220.75C61.1693 219.083 62.2526 217.75 63.5859 216.75C64.9193 215.917 66.3359 215 67.8359 214C69.1693 213.167 70.5026 212.417 71.8359 211.75C71.6693 211.417 71.5859 210.833 71.5859 210C71.5859 208.667 72.0026 208 72.8359 208C73.3359 208 74.0859 208.583 75.0859 209.75C88.0859 202.583 100.753 197.333 113.086 194V193.25C113.086 188.583 111.836 184.25 109.336 180.25C107.003 176.25 104.003 172.167 100.336 168C96.6693 163.833 92.9193 159.25 89.0859 154.25C85.4193 149.25 82.0859 143.583 79.0859 137.25C76.2526 130.75 74.4193 123.167 73.5859 114.5C73.4193 113.5 73.3359 112.5 73.3359 111.5C73.3359 110.5 73.3359 109.5 73.3359 108.5C73.3359 97.8333 75.7526 88.1667 80.5859 79.5C85.4193 70.8333 91.6693 63.4167 99.3359 57.25C107.169 50.9167 115.586 46 124.586 42.5C131.753 39.6667 139.919 38.25 149.086 38.25C152.419 38.25 155.586 38.5 158.586 39C167.419 40.6667 173.586 43.5833 177.086 47.75C180.586 51.9167 182.336 56.0833 182.336 60.25C182.336 63.4167 181.503 66.25 179.836 68.75C178.169 71.25 177.003 72.5 176.336 72.5C175.836 72.5 175.586 72.1667 175.586 71.5C175.586 71.1667 175.669 70.6667 175.836 70C176.169 69.1667 176.419 68.3333 176.586 67.5C177.086 66.1667 177.419 65 177.586 64C177.753 63 177.836 62 177.836 61C177.836 55.6667 175.336 51.75 170.336 49.25C165.503 46.5833 160.336 45.25 154.836 45.25C154.169 45.25 153.419 45.25 152.586 45.25C151.753 45.25 150.919 45.3333 150.086 45.5C139.586 47 129.669 50.8333 120.336 57C111.003 63.1667 103.086 71.25 96.5859 81.25C90.2526 91.0833 86.0859 102.417 84.0859 115.25C83.9193 116.417 83.7526 117.583 83.5859 118.75C83.5859 119.917 83.5859 121 83.5859 122C83.5859 129.833 85.2526 137 88.5859 143.5C91.9193 149.833 95.8359 155.75 100.336 161.25C105.003 166.75 109.419 172.083 113.586 177.25C117.753 182.25 120.586 187.25 122.086 192.25C125.419 191.583 128.669 191.167 131.836 191C135.003 190.833 138.086 190.833 141.086 191C143.419 191.333 144.586 192 144.586 193C144.586 194 142.919 194.5 139.586 194.5C137.253 194.5 134.669 194.667 131.836 195C129.003 195.167 126.003 195.667 122.836 196.5C123.003 197 123.086 197.5 123.086 198C123.086 198.5 123.086 198.917 123.086 199.25C123.086 200.917 122.836 202.667 122.336 204.5C120.169 211.167 116.253 216.083 110.586 219.25C104.919 222.417 99.1693 224 93.3359 224C87.6693 224 82.9193 222.833 79.0859 220.5C77.7526 219.833 76.5026 218.917 75.3359 217.75C73.1693 218.917 71.0026 220.25 68.8359 221.75C66.5026 223.25 64.2526 224.75 62.0859 226.25C61.4193 226.75 60.8359 227 60.3359 227ZM91.0859 219.5C95.9193 219.5 100.669 217.917 105.336 214.75C110.003 211.75 112.586 206.667 113.086 199.5C102.086 203.333 90.7526 208.667 79.0859 215.5C81.7526 218.167 85.7526 219.5 91.0859 219.5ZM160.598 249C158.931 249 157.181 247.917 155.348 245.75C153.681 243.75 152.098 240.917 150.598 237.25C148.098 231.25 146.348 224.917 145.348 218.25C144.348 211.75 143.848 205.167 143.848 198.5C143.848 191.167 144.348 184 145.348 177C146.348 170 147.431 163.667 148.598 158C149.431 154 150.431 149.75 151.598 145.25C152.764 140.75 153.848 137.167 154.848 134.5C153.848 134.667 152.264 135.25 150.098 136.25C147.931 137.25 145.681 138.25 143.348 139.25C141.181 140.25 139.264 140.75 137.598 140.75C135.098 140.75 133.848 139.333 133.848 136.5C133.848 135 134.348 133.667 135.348 132.5C136.514 131.333 137.931 130.417 139.598 129.75C142.931 128.25 146.598 127.167 150.598 126.5C154.598 125.667 157.264 124.833 158.598 124L165.098 107.5C165.764 105.833 166.931 103.167 168.598 99.5C170.431 95.6667 172.514 91.5833 174.848 87.25C177.348 82.9167 179.764 79 182.098 75.5C183.931 72.8333 185.681 70.75 187.348 69.25C189.014 67.5833 190.848 66.75 192.848 66.75C195.848 66.75 197.348 67.9167 197.348 70.25C197.348 71.5833 196.764 73.5833 195.598 76.25C194.598 78.9167 192.681 82.4167 189.848 86.75C186.681 91.75 183.431 96.75 180.098 101.75C176.931 106.583 174.181 111.667 171.848 117C171.681 117.667 171.264 118.75 170.598 120.25C170.098 121.583 169.681 122.417 169.348 122.75L174.348 122C175.681 121.833 177.181 121.75 178.848 121.75C180.514 121.583 182.348 121.5 184.348 121.5C187.181 121.5 189.848 121.667 192.348 122C195.014 122.167 197.181 122.583 198.848 123.25C199.681 123.583 200.431 124 201.098 124.5C201.931 124.833 202.348 125.167 202.348 125.5C202.348 126.167 200.181 126.5 195.848 126.5C193.348 126.5 189.764 126.917 185.098 127.75C180.598 128.583 175.431 129.917 169.598 131.75C166.764 132.583 164.848 133.75 163.848 135.25C162.848 136.75 161.514 140.333 159.848 146C157.348 155 155.348 163.667 153.848 172C152.348 180.167 151.181 188.5 150.348 197C150.181 198.667 150.014 200.417 149.848 202.25C149.848 204.083 149.848 206.083 149.848 208.25C149.848 213.917 150.348 219.833 151.348 226C152.514 232.167 154.181 237.5 156.348 242C156.848 243 157.348 243.917 157.848 244.75C158.514 245.583 159.264 246.167 160.098 246.5C161.264 247 161.848 247.583 161.848 248.25C161.848 248.75 161.431 249 160.598 249ZM189.59 207C186.59 207 184.423 205.75 183.09 203.25C181.757 200.583 181.09 197.5 181.09 194C181.09 189.5 181.84 184.25 183.34 178.25C185.007 172.25 187.173 166.083 189.84 159.75C192.507 153.25 195.507 147.333 198.84 142C202.34 136.5 206.007 132.083 209.84 128.75C213.673 125.25 217.423 123.5 221.09 123.5C224.423 123.5 227.257 125 229.59 128C232.09 130.833 233.34 134.083 233.34 137.75C233.34 139.917 233.007 141.75 232.34 143.25C231.673 144.583 230.923 145.25 230.09 145.25C229.423 145.25 228.84 144.75 228.34 143.75C226.673 139.917 224.84 137.167 222.84 135.5C221.007 133.833 219.09 133 217.09 133C213.757 133 210.423 134.917 207.09 138.75C203.923 142.417 201.34 146.667 199.34 151.5C197.673 155.167 196.09 159.583 194.59 164.75C193.257 169.75 192.09 174.75 191.09 179.75C190.257 184.583 189.84 188.583 189.84 191.75C189.84 197.417 191.173 200.25 193.84 200.25C197.173 200.25 201.423 196.583 206.59 189.25C210.423 183.917 213.84 177.75 216.84 170.75C220.007 163.75 222.673 157.667 224.84 152.5C225.673 150.833 226.59 149.75 227.59 149.25C228.59 148.75 229.507 148.5 230.34 148.5C232.34 148.5 233.59 149.333 234.09 151C234.757 152.667 235.09 154.083 235.09 155.25C235.09 159.583 234.673 163.5 233.84 167C233.007 170.333 232.59 174.417 232.59 179.25C232.59 182.75 232.84 186 233.34 189C234.007 191.833 235.09 193.25 236.59 193.25C238.423 193.25 240.757 190.917 243.59 186.25C244.257 184.917 245.257 184.25 246.59 184.25C248.09 184.25 248.84 185 248.84 186.5C248.84 188.667 247.34 191 244.34 193.5C241.34 195.833 238.34 197 235.34 197C231.34 197 228.507 195.333 226.84 192C224.007 186.5 222.59 181.583 222.59 177.25C222.59 172.75 222.507 169.667 222.34 168C221.507 170 219.923 173.167 217.59 177.5C215.257 181.667 212.507 186.083 209.34 190.75C206.173 195.25 202.84 199.083 199.34 202.25C195.84 205.417 192.59 207 189.59 207ZM279.764 221.5C274.43 221.5 270.347 219 267.514 214C264.68 209.167 263.264 203.833 263.264 198C263.264 192.5 264.18 186.75 266.014 180.75C267.847 174.75 270.097 168.833 272.764 163C275.597 157.167 278.514 151.833 281.514 147C278.514 148.167 275.68 148.75 273.014 148.75C271.68 148.75 270.514 148.583 269.514 148.25C268.514 147.917 267.68 147.667 267.014 147.5C266.18 149.5 264.68 152.833 262.514 157.5C260.514 162.167 258.347 167.083 256.014 172.25C253.847 177.25 251.93 181.5 250.264 185C247.597 190.667 245.264 193.5 243.264 193.5C242.264 193.5 241.764 192.833 241.764 191.5C241.764 190.5 242.18 189.167 243.014 187.5C246.847 180.333 250.43 173.25 253.764 166.25C257.264 159.25 260.43 152.5 263.264 146C262.93 145.167 262.597 144.083 262.264 142.75C261.93 141.25 261.764 139.667 261.764 138C261.764 136.167 261.93 134.25 262.264 132.25C262.764 130.083 263.43 128 264.264 126C264.764 124.833 265.68 123.167 267.014 121C268.347 118.667 269.847 116.583 271.514 114.75C273.18 112.75 274.764 111.75 276.264 111.75C279.097 111.75 280.514 113.25 280.514 116.25C280.514 119.083 279.597 122.333 277.764 126C276.097 129.667 274.347 133.083 272.514 136.25C270.68 139.25 269.764 141.5 269.764 143C269.764 144.333 270.43 145 271.764 145C273.597 145 275.847 144.083 278.514 142.25C281.347 140.25 283.597 138.417 285.264 136.75C286.097 135.917 287.43 134.667 289.264 133C291.097 131.167 292.847 130.25 294.514 130.25C296.18 130.25 297.264 130.75 297.764 131.75C298.43 132.75 298.764 133.917 298.764 135.25C298.764 136.75 298.097 138.667 296.764 141C295.43 143.167 293.847 145.333 292.014 147.5C290.347 149.667 288.93 151.5 287.764 153C285.43 156.5 282.764 160.917 279.764 166.25C276.764 171.583 274.18 177.333 272.014 183.5C269.847 189.5 268.764 195.25 268.764 200.75C268.764 204.417 269.68 208.25 271.514 212.25C273.347 216.25 275.847 218.25 279.014 218.25C281.847 218.25 284.847 216.75 288.014 213.75C291.347 210.75 294.43 207.167 297.264 203C300.264 198.833 302.847 194.833 305.014 191C307.347 187.167 308.93 184.5 309.764 183C310.097 182.167 310.68 181.167 311.514 180C312.347 178.667 313.347 178 314.514 178C315.514 178 316.014 178.5 316.014 179.5C316.014 180.333 315.764 181.333 315.264 182.5C314.93 183.5 314.597 184.417 314.264 185.25C312.764 188.75 310.93 192.417 308.764 196.25C306.597 200.083 305.097 202.667 304.264 204C301.93 207.833 298.43 211.667 293.764 215.5C289.264 219.5 284.597 221.5 279.764 221.5ZM332.473 249C330.806 249 329.056 247.917 327.223 245.75C325.556 243.75 323.973 240.917 322.473 237.25C319.973 231.25 318.223 224.917 317.223 218.25C316.223 211.75 315.723 205.167 315.723 198.5C315.723 191.167 316.223 184 317.223 177C318.223 170 319.306 163.667 320.473 158C321.306 154 322.306 149.75 323.473 145.25C324.639 140.75 325.723 137.167 326.723 134.5C325.723 134.667 324.139 135.25 321.973 136.25C319.806 137.25 317.556 138.25 315.223 139.25C313.056 140.25 311.139 140.75 309.473 140.75C306.973 140.75 305.723 139.333 305.723 136.5C305.723 135 306.223 133.667 307.223 132.5C308.389 131.333 309.806 130.417 311.473 129.75C314.806 128.25 318.473 127.167 322.473 126.5C326.473 125.667 329.139 124.833 330.473 124L336.973 107.5C337.639 105.833 338.806 103.167 340.473 99.5C342.306 95.6667 344.389 91.5833 346.723 87.25C349.223 82.9167 351.639 79 353.973 75.5C355.806 72.8333 357.556 70.75 359.223 69.25C360.889 67.5833 362.723 66.75 364.723 66.75C367.723 66.75 369.223 67.9167 369.223 70.25C369.223 71.5833 368.639 73.5833 367.473 76.25C366.473 78.9167 364.556 82.4167 361.723 86.75C358.556 91.75 355.306 96.75 351.973 101.75C348.806 106.583 346.056 111.667 343.723 117C343.556 117.667 343.139 118.75 342.473 120.25C341.973 121.583 341.556 122.417 341.223 122.75L346.223 122C347.556 121.833 349.056 121.75 350.723 121.75C352.389 121.583 354.223 121.5 356.223 121.5C359.056 121.5 361.723 121.667 364.223 122C366.889 122.167 369.056 122.583 370.723 123.25C371.556 123.583 372.306 124 372.973 124.5C373.806 124.833 374.223 125.167 374.223 125.5C374.223 126.167 372.056 126.5 367.723 126.5C365.223 126.5 361.639 126.917 356.973 127.75C352.473 128.583 347.306 129.917 341.473 131.75C338.639 132.583 336.723 133.75 335.723 135.25C334.723 136.75 333.389 140.333 331.723 146C329.223 155 327.223 163.667 325.723 172C324.223 180.167 323.056 188.5 322.223 197C322.056 198.667 321.889 200.417 321.723 202.25C321.723 204.083 321.723 206.083 321.723 208.25C321.723 213.917 322.223 219.833 323.223 226C324.389 232.167 326.056 237.5 328.223 242C328.723 243 329.223 243.917 329.723 244.75C330.389 245.583 331.139 246.167 331.973 246.5C333.139 247 333.723 247.583 333.723 248.25C333.723 248.75 333.306 249 332.473 249ZM354.965 307.25C348.465 307.25 343.215 305.5 339.215 302C335.215 298.667 333.215 294.167 333.215 288.5C333.215 283.5 334.632 278.5 337.465 273.5C340.132 268.667 343.465 264 347.465 259.5C351.632 255.167 355.798 251.333 359.965 248C367.298 242.167 375.965 236.667 385.965 231.5C396.132 226.333 407.548 222.417 420.215 219.75C420.382 217.917 420.465 216 420.465 214C420.465 212.167 420.465 210.333 420.465 208.5C420.465 195 419.548 182.75 417.715 171.75C415.882 160.583 413.798 151 411.465 143C404.798 159.5 398.882 173.25 393.715 184.25C388.548 195.083 385.715 204.167 385.215 211.5C385.048 212.667 384.298 213.917 382.965 215.25C381.798 216.75 380.465 217.5 378.965 217.5C377.965 217.5 376.965 216.917 375.965 215.75C375.132 214.75 374.548 212.917 374.215 210.25C374.215 209.583 374.132 208.667 373.965 207.5C373.965 206.333 373.965 204.25 373.965 201.25C373.965 198.25 373.965 193.75 373.965 187.75C373.965 182.417 373.798 177 373.465 171.5C373.298 165.833 372.715 160.583 371.715 155.75C370.715 150.917 369.215 147 367.215 144C365.382 141 362.798 139.5 359.465 139.5C356.798 139.5 354.298 140.5 351.965 142.5C349.798 144.5 347.965 146.5 346.465 148.5C344.965 150.333 343.798 151.25 342.965 151.25C342.298 151.25 341.965 151 341.965 150.5C341.965 150.167 342.215 149.667 342.715 149C343.048 148.167 343.382 147.5 343.715 147C345.215 144.833 347.132 142.667 349.465 140.5C351.965 138.333 354.548 136.5 357.215 135C360.048 133.333 362.548 132.5 364.715 132.5C369.215 132.5 372.715 134.833 375.215 139.5C377.715 144 379.465 149.75 380.465 156.75C381.632 163.75 382.215 170.917 382.215 178.25C382.215 181.417 382.048 185.25 381.715 189.75C381.382 194.25 380.965 198.083 380.465 201.25C383.798 195.083 388.048 186.5 393.215 175.5C398.382 164.5 404.048 152.083 410.215 138.25L407.965 131.75V131C407.965 129.333 408.465 128.083 409.465 127.25C410.632 126.417 411.798 126 412.965 126C413.965 126 414.965 126.25 415.965 126.75C416.965 127.25 417.632 128 417.965 129C419.965 133.5 421.632 139.667 422.965 147.5C424.465 155.333 425.548 163.833 426.215 173C427.048 182 427.465 190.917 427.465 199.75C427.465 206.417 427.215 212.667 426.715 218.5C430.882 217.667 435.298 217 439.965 216.5C444.798 216 448.965 215.75 452.465 215.75C454.632 215.75 455.715 216.083 455.715 216.75C455.715 218.083 453.965 218.917 450.465 219.25C446.465 219.583 442.382 220 438.215 220.5C434.215 221.167 430.132 222 425.965 223C422.465 242.167 416.965 257.5 409.465 269C402.132 280.667 394.548 289.417 386.715 295.25C381.048 299.417 375.465 302.417 369.965 304.25C364.632 306.25 359.632 307.25 354.965 307.25ZM352.965 302C355.798 302 359.048 301.417 362.715 300.25C366.548 299.083 370.548 297.25 374.715 294.75C388.048 286.917 398.382 277 405.715 265C413.048 253.167 417.715 239.667 419.715 224.5C409.882 227.167 399.965 231 389.965 236C380.132 241.167 371.132 247.167 362.965 254C359.298 257.167 355.632 260.75 351.965 264.75C348.465 268.75 345.548 272.833 343.215 277C340.882 281.333 339.715 285.5 339.715 289.5C339.715 293.333 340.882 296.333 343.215 298.5C345.548 300.833 348.798 302 352.965 302Z" fill="#FAE84B"/>
</g>
<g filter="url(#filter1_d_4_2)">
<path d="M57.3359 224C56.5026 224 56.0859 223.333 56.0859 222C56.0859 220.833 56.5026 219.417 57.3359 217.75C58.1693 216.083 59.2526 214.75 60.5859 213.75C61.9193 212.917 63.3359 212 64.8359 211C66.1693 210.167 67.5026 209.417 68.8359 208.75C68.6693 208.417 68.5859 207.833 68.5859 207C68.5859 205.667 69.0026 205 69.8359 205C70.3359 205 71.0859 205.583 72.0859 206.75C85.0859 199.583 97.7526 194.333 110.086 191V190.25C110.086 185.583 108.836 181.25 106.336 177.25C104.003 173.25 101.003 169.167 97.3359 165C93.6693 160.833 89.9193 156.25 86.0859 151.25C82.4193 146.25 79.0859 140.583 76.0859 134.25C73.2526 127.75 71.4193 120.167 70.5859 111.5C70.4193 110.5 70.3359 109.5 70.3359 108.5C70.3359 107.5 70.3359 106.5 70.3359 105.5C70.3359 94.8333 72.7526 85.1667 77.5859 76.5C82.4193 67.8333 88.6693 60.4167 96.3359 54.25C104.169 47.9167 112.586 43 121.586 39.5C128.753 36.6667 136.919 35.25 146.086 35.25C149.419 35.25 152.586 35.5 155.586 36C164.419 37.6667 170.586 40.5833 174.086 44.75C177.586 48.9167 179.336 53.0833 179.336 57.25C179.336 60.4167 178.503 63.25 176.836 65.75C175.169 68.25 174.003 69.5 173.336 69.5C172.836 69.5 172.586 69.1667 172.586 68.5C172.586 68.1667 172.669 67.6667 172.836 67C173.169 66.1667 173.419 65.3333 173.586 64.5C174.086 63.1667 174.419 62 174.586 61C174.753 60 174.836 59 174.836 58C174.836 52.6667 172.336 48.75 167.336 46.25C162.503 43.5833 157.336 42.25 151.836 42.25C151.169 42.25 150.419 42.25 149.586 42.25C148.753 42.25 147.919 42.3333 147.086 42.5C136.586 44 126.669 47.8333 117.336 54C108.003 60.1667 100.086 68.25 93.5859 78.25C87.2526 88.0833 83.0859 99.4167 81.0859 112.25C80.9193 113.417 80.7526 114.583 80.5859 115.75C80.5859 116.917 80.5859 118 80.5859 119C80.5859 126.833 82.2526 134 85.5859 140.5C88.9193 146.833 92.8359 152.75 97.3359 158.25C102.003 163.75 106.419 169.083 110.586 174.25C114.753 179.25 117.586 184.25 119.086 189.25C122.419 188.583 125.669 188.167 128.836 188C132.003 187.833 135.086 187.833 138.086 188C140.419 188.333 141.586 189 141.586 190C141.586 191 139.919 191.5 136.586 191.5C134.253 191.5 131.669 191.667 128.836 192C126.003 192.167 123.003 192.667 119.836 193.5C120.003 194 120.086 194.5 120.086 195C120.086 195.5 120.086 195.917 120.086 196.25C120.086 197.917 119.836 199.667 119.336 201.5C117.169 208.167 113.253 213.083 107.586 216.25C101.919 219.417 96.1693 221 90.3359 221C84.6693 221 79.9193 219.833 76.0859 217.5C74.7526 216.833 73.5026 215.917 72.3359 214.75C70.1693 215.917 68.0026 217.25 65.8359 218.75C63.5026 220.25 61.2526 221.75 59.0859 223.25C58.4193 223.75 57.8359 224 57.3359 224ZM88.0859 216.5C92.9193 216.5 97.6693 214.917 102.336 211.75C107.003 208.75 109.586 203.667 110.086 196.5C99.0859 200.333 87.7526 205.667 76.0859 212.5C78.7526 215.167 82.7526 216.5 88.0859 216.5ZM157.598 246C155.931 246 154.181 244.917 152.348 242.75C150.681 240.75 149.098 237.917 147.598 234.25C145.098 228.25 143.348 221.917 142.348 215.25C141.348 208.75 140.848 202.167 140.848 195.5C140.848 188.167 141.348 181 142.348 174C143.348 167 144.431 160.667 145.598 155C146.431 151 147.431 146.75 148.598 142.25C149.764 137.75 150.848 134.167 151.848 131.5C150.848 131.667 149.264 132.25 147.098 133.25C144.931 134.25 142.681 135.25 140.348 136.25C138.181 137.25 136.264 137.75 134.598 137.75C132.098 137.75 130.848 136.333 130.848 133.5C130.848 132 131.348 130.667 132.348 129.5C133.514 128.333 134.931 127.417 136.598 126.75C139.931 125.25 143.598 124.167 147.598 123.5C151.598 122.667 154.264 121.833 155.598 121L162.098 104.5C162.764 102.833 163.931 100.167 165.598 96.5C167.431 92.6667 169.514 88.5833 171.848 84.25C174.348 79.9167 176.764 76 179.098 72.5C180.931 69.8333 182.681 67.75 184.348 66.25C186.014 64.5833 187.848 63.75 189.848 63.75C192.848 63.75 194.348 64.9167 194.348 67.25C194.348 68.5833 193.764 70.5833 192.598 73.25C191.598 75.9167 189.681 79.4167 186.848 83.75C183.681 88.75 180.431 93.75 177.098 98.75C173.931 103.583 171.181 108.667 168.848 114C168.681 114.667 168.264 115.75 167.598 117.25C167.098 118.583 166.681 119.417 166.348 119.75L171.348 119C172.681 118.833 174.181 118.75 175.848 118.75C177.514 118.583 179.348 118.5 181.348 118.5C184.181 118.5 186.848 118.667 189.348 119C192.014 119.167 194.181 119.583 195.848 120.25C196.681 120.583 197.431 121 198.098 121.5C198.931 121.833 199.348 122.167 199.348 122.5C199.348 123.167 197.181 123.5 192.848 123.5C190.348 123.5 186.764 123.917 182.098 124.75C177.598 125.583 172.431 126.917 166.598 128.75C163.764 129.583 161.848 130.75 160.848 132.25C159.848 133.75 158.514 137.333 156.848 143C154.348 152 152.348 160.667 150.848 169C149.348 177.167 148.181 185.5 147.348 194C147.181 195.667 147.014 197.417 146.848 199.25C146.848 201.083 146.848 203.083 146.848 205.25C146.848 210.917 147.348 216.833 148.348 223C149.514 229.167 151.181 234.5 153.348 239C153.848 240 154.348 240.917 154.848 241.75C155.514 242.583 156.264 243.167 157.098 243.5C158.264 244 158.848 244.583 158.848 245.25C158.848 245.75 158.431 246 157.598 246ZM186.59 204C183.59 204 181.423 202.75 180.09 200.25C178.757 197.583 178.09 194.5 178.09 191C178.09 186.5 178.84 181.25 180.34 175.25C182.007 169.25 184.173 163.083 186.84 156.75C189.507 150.25 192.507 144.333 195.84 139C199.34 133.5 203.007 129.083 206.84 125.75C210.673 122.25 214.423 120.5 218.09 120.5C221.423 120.5 224.257 122 226.59 125C229.09 127.833 230.34 131.083 230.34 134.75C230.34 136.917 230.007 138.75 229.34 140.25C228.673 141.583 227.923 142.25 227.09 142.25C226.423 142.25 225.84 141.75 225.34 140.75C223.673 136.917 221.84 134.167 219.84 132.5C218.007 130.833 216.09 130 214.09 130C210.757 130 207.423 131.917 204.09 135.75C200.923 139.417 198.34 143.667 196.34 148.5C194.673 152.167 193.09 156.583 191.59 161.75C190.257 166.75 189.09 171.75 188.09 176.75C187.257 181.583 186.84 185.583 186.84 188.75C186.84 194.417 188.173 197.25 190.84 197.25C194.173 197.25 198.423 193.583 203.59 186.25C207.423 180.917 210.84 174.75 213.84 167.75C217.007 160.75 219.673 154.667 221.84 149.5C222.673 147.833 223.59 146.75 224.59 146.25C225.59 145.75 226.507 145.5 227.34 145.5C229.34 145.5 230.59 146.333 231.09 148C231.757 149.667 232.09 151.083 232.09 152.25C232.09 156.583 231.673 160.5 230.84 164C230.007 167.333 229.59 171.417 229.59 176.25C229.59 179.75 229.84 183 230.34 186C231.007 188.833 232.09 190.25 233.59 190.25C235.423 190.25 237.757 187.917 240.59 183.25C241.257 181.917 242.257 181.25 243.59 181.25C245.09 181.25 245.84 182 245.84 183.5C245.84 185.667 244.34 188 241.34 190.5C238.34 192.833 235.34 194 232.34 194C228.34 194 225.507 192.333 223.84 189C221.007 183.5 219.59 178.583 219.59 174.25C219.59 169.75 219.507 166.667 219.34 165C218.507 167 216.923 170.167 214.59 174.5C212.257 178.667 209.507 183.083 206.34 187.75C203.173 192.25 199.84 196.083 196.34 199.25C192.84 202.417 189.59 204 186.59 204ZM276.764 218.5C271.43 218.5 267.347 216 264.514 211C261.68 206.167 260.264 200.833 260.264 195C260.264 189.5 261.18 183.75 263.014 177.75C264.847 171.75 267.097 165.833 269.764 160C272.597 154.167 275.514 148.833 278.514 144C275.514 145.167 272.68 145.75 270.014 145.75C268.68 145.75 267.514 145.583 266.514 145.25C265.514 144.917 264.68 144.667 264.014 144.5C263.18 146.5 261.68 149.833 259.514 154.5C257.514 159.167 255.347 164.083 253.014 169.25C250.847 174.25 248.93 178.5 247.264 182C244.597 187.667 242.264 190.5 240.264 190.5C239.264 190.5 238.764 189.833 238.764 188.5C238.764 187.5 239.18 186.167 240.014 184.5C243.847 177.333 247.43 170.25 250.764 163.25C254.264 156.25 257.43 149.5 260.264 143C259.93 142.167 259.597 141.083 259.264 139.75C258.93 138.25 258.764 136.667 258.764 135C258.764 133.167 258.93 131.25 259.264 129.25C259.764 127.083 260.43 125 261.264 123C261.764 121.833 262.68 120.167 264.014 118C265.347 115.667 266.847 113.583 268.514 111.75C270.18 109.75 271.764 108.75 273.264 108.75C276.097 108.75 277.514 110.25 277.514 113.25C277.514 116.083 276.597 119.333 274.764 123C273.097 126.667 271.347 130.083 269.514 133.25C267.68 136.25 266.764 138.5 266.764 140C266.764 141.333 267.43 142 268.764 142C270.597 142 272.847 141.083 275.514 139.25C278.347 137.25 280.597 135.417 282.264 133.75C283.097 132.917 284.43 131.667 286.264 130C288.097 128.167 289.847 127.25 291.514 127.25C293.18 127.25 294.264 127.75 294.764 128.75C295.43 129.75 295.764 130.917 295.764 132.25C295.764 133.75 295.097 135.667 293.764 138C292.43 140.167 290.847 142.333 289.014 144.5C287.347 146.667 285.93 148.5 284.764 150C282.43 153.5 279.764 157.917 276.764 163.25C273.764 168.583 271.18 174.333 269.014 180.5C266.847 186.5 265.764 192.25 265.764 197.75C265.764 201.417 266.68 205.25 268.514 209.25C270.347 213.25 272.847 215.25 276.014 215.25C278.847 215.25 281.847 213.75 285.014 210.75C288.347 207.75 291.43 204.167 294.264 200C297.264 195.833 299.847 191.833 302.014 188C304.347 184.167 305.93 181.5 306.764 180C307.097 179.167 307.68 178.167 308.514 177C309.347 175.667 310.347 175 311.514 175C312.514 175 313.014 175.5 313.014 176.5C313.014 177.333 312.764 178.333 312.264 179.5C311.93 180.5 311.597 181.417 311.264 182.25C309.764 185.75 307.93 189.417 305.764 193.25C303.597 197.083 302.097 199.667 301.264 201C298.93 204.833 295.43 208.667 290.764 212.5C286.264 216.5 281.597 218.5 276.764 218.5ZM329.473 246C327.806 246 326.056 244.917 324.223 242.75C322.556 240.75 320.973 237.917 319.473 234.25C316.973 228.25 315.223 221.917 314.223 215.25C313.223 208.75 312.723 202.167 312.723 195.5C312.723 188.167 313.223 181 314.223 174C315.223 167 316.306 160.667 317.473 155C318.306 151 319.306 146.75 320.473 142.25C321.639 137.75 322.723 134.167 323.723 131.5C322.723 131.667 321.139 132.25 318.973 133.25C316.806 134.25 314.556 135.25 312.223 136.25C310.056 137.25 308.139 137.75 306.473 137.75C303.973 137.75 302.723 136.333 302.723 133.5C302.723 132 303.223 130.667 304.223 129.5C305.389 128.333 306.806 127.417 308.473 126.75C311.806 125.25 315.473 124.167 319.473 123.5C323.473 122.667 326.139 121.833 327.473 121L333.973 104.5C334.639 102.833 335.806 100.167 337.473 96.5C339.306 92.6667 341.389 88.5833 343.723 84.25C346.223 79.9167 348.639 76 350.973 72.5C352.806 69.8333 354.556 67.75 356.223 66.25C357.889 64.5833 359.723 63.75 361.723 63.75C364.723 63.75 366.223 64.9167 366.223 67.25C366.223 68.5833 365.639 70.5833 364.473 73.25C363.473 75.9167 361.556 79.4167 358.723 83.75C355.556 88.75 352.306 93.75 348.973 98.75C345.806 103.583 343.056 108.667 340.723 114C340.556 114.667 340.139 115.75 339.473 117.25C338.973 118.583 338.556 119.417 338.223 119.75L343.223 119C344.556 118.833 346.056 118.75 347.723 118.75C349.389 118.583 351.223 118.5 353.223 118.5C356.056 118.5 358.723 118.667 361.223 119C363.889 119.167 366.056 119.583 367.723 120.25C368.556 120.583 369.306 121 369.973 121.5C370.806 121.833 371.223 122.167 371.223 122.5C371.223 123.167 369.056 123.5 364.723 123.5C362.223 123.5 358.639 123.917 353.973 124.75C349.473 125.583 344.306 126.917 338.473 128.75C335.639 129.583 333.723 130.75 332.723 132.25C331.723 133.75 330.389 137.333 328.723 143C326.223 152 324.223 160.667 322.723 169C321.223 177.167 320.056 185.5 319.223 194C319.056 195.667 318.889 197.417 318.723 199.25C318.723 201.083 318.723 203.083 318.723 205.25C318.723 210.917 319.223 216.833 320.223 223C321.389 229.167 323.056 234.5 325.223 239C325.723 240 326.223 240.917 326.723 241.75C327.389 242.583 328.139 243.167 328.973 243.5C330.139 244 330.723 244.583 330.723 245.25C330.723 245.75 330.306 246 329.473 246ZM351.965 304.25C345.465 304.25 340.215 302.5 336.215 299C332.215 295.667 330.215 291.167 330.215 285.5C330.215 280.5 331.632 275.5 334.465 270.5C337.132 265.667 340.465 261 344.465 256.5C348.632 252.167 352.798 248.333 356.965 245C364.298 239.167 372.965 233.667 382.965 228.5C393.132 223.333 404.548 219.417 417.215 216.75C417.382 214.917 417.465 213 417.465 211C417.465 209.167 417.465 207.333 417.465 205.5C417.465 192 416.548 179.75 414.715 168.75C412.882 157.583 410.798 148 408.465 140C401.798 156.5 395.882 170.25 390.715 181.25C385.548 192.083 382.715 201.167 382.215 208.5C382.048 209.667 381.298 210.917 379.965 212.25C378.798 213.75 377.465 214.5 375.965 214.5C374.965 214.5 373.965 213.917 372.965 212.75C372.132 211.75 371.548 209.917 371.215 207.25C371.215 206.583 371.132 205.667 370.965 204.5C370.965 203.333 370.965 201.25 370.965 198.25C370.965 195.25 370.965 190.75 370.965 184.75C370.965 179.417 370.798 174 370.465 168.5C370.298 162.833 369.715 157.583 368.715 152.75C367.715 147.917 366.215 144 364.215 141C362.382 138 359.798 136.5 356.465 136.5C353.798 136.5 351.298 137.5 348.965 139.5C346.798 141.5 344.965 143.5 343.465 145.5C341.965 147.333 340.798 148.25 339.965 148.25C339.298 148.25 338.965 148 338.965 147.5C338.965 147.167 339.215 146.667 339.715 146C340.048 145.167 340.382 144.5 340.715 144C342.215 141.833 344.132 139.667 346.465 137.5C348.965 135.333 351.548 133.5 354.215 132C357.048 130.333 359.548 129.5 361.715 129.5C366.215 129.5 369.715 131.833 372.215 136.5C374.715 141 376.465 146.75 377.465 153.75C378.632 160.75 379.215 167.917 379.215 175.25C379.215 178.417 379.048 182.25 378.715 186.75C378.382 191.25 377.965 195.083 377.465 198.25C380.798 192.083 385.048 183.5 390.215 172.5C395.382 161.5 401.048 149.083 407.215 135.25L404.965 128.75V128C404.965 126.333 405.465 125.083 406.465 124.25C407.632 123.417 408.798 123 409.965 123C410.965 123 411.965 123.25 412.965 123.75C413.965 124.25 414.632 125 414.965 126C416.965 130.5 418.632 136.667 419.965 144.5C421.465 152.333 422.548 160.833 423.215 170C424.048 179 424.465 187.917 424.465 196.75C424.465 203.417 424.215 209.667 423.715 215.5C427.882 214.667 432.298 214 436.965 213.5C441.798 213 445.965 212.75 449.465 212.75C451.632 212.75 452.715 213.083 452.715 213.75C452.715 215.083 450.965 215.917 447.465 216.25C443.465 216.583 439.382 217 435.215 217.5C431.215 218.167 427.132 219 422.965 220C419.465 239.167 413.965 254.5 406.465 266C399.132 277.667 391.548 286.417 383.715 292.25C378.048 296.417 372.465 299.417 366.965 301.25C361.632 303.25 356.632 304.25 351.965 304.25ZM349.965 299C352.798 299 356.048 298.417 359.715 297.25C363.548 296.083 367.548 294.25 371.715 291.75C385.048 283.917 395.382 274 402.715 262C410.048 250.167 414.715 236.667 416.715 221.5C406.882 224.167 396.965 228 386.965 233C377.132 238.167 368.132 244.167 359.965 251C356.298 254.167 352.632 257.75 348.965 261.75C345.465 265.75 342.548 269.833 340.215 274C337.882 278.333 336.715 282.5 336.715 286.5C336.715 290.333 337.882 293.333 340.215 295.5C342.548 297.833 345.798 299 349.965 299Z" fill="black"/>
<path d="M57.3359 224C56.5026 224 56.0859 223.333 56.0859 222C56.0859 220.833 56.5026 219.417 57.3359 217.75C58.1693 216.083 59.2526 214.75 60.5859 213.75C61.9193 212.917 63.3359 212 64.8359 211C66.1693 210.167 67.5026 209.417 68.8359 208.75C68.6693 208.417 68.5859 207.833 68.5859 207C68.5859 205.667 69.0026 205 69.8359 205C70.3359 205 71.0859 205.583 72.0859 206.75C85.0859 199.583 97.7526 194.333 110.086 191V190.25C110.086 185.583 108.836 181.25 106.336 177.25C104.003 173.25 101.003 169.167 97.3359 165C93.6693 160.833 89.9193 156.25 86.0859 151.25C82.4193 146.25 79.0859 140.583 76.0859 134.25C73.2526 127.75 71.4193 120.167 70.5859 111.5C70.4193 110.5 70.3359 109.5 70.3359 108.5C70.3359 107.5 70.3359 106.5 70.3359 105.5C70.3359 94.8333 72.7526 85.1667 77.5859 76.5C82.4193 67.8333 88.6693 60.4167 96.3359 54.25C104.169 47.9167 112.586 43 121.586 39.5C128.753 36.6667 136.919 35.25 146.086 35.25C149.419 35.25 152.586 35.5 155.586 36C164.419 37.6667 170.586 40.5833 174.086 44.75C177.586 48.9167 179.336 53.0833 179.336 57.25C179.336 60.4167 178.503 63.25 176.836 65.75C175.169 68.25 174.003 69.5 173.336 69.5C172.836 69.5 172.586 69.1667 172.586 68.5C172.586 68.1667 172.669 67.6667 172.836 67C173.169 66.1667 173.419 65.3333 173.586 64.5C174.086 63.1667 174.419 62 174.586 61C174.753 60 174.836 59 174.836 58C174.836 52.6667 172.336 48.75 167.336 46.25C162.503 43.5833 157.336 42.25 151.836 42.25C151.169 42.25 150.419 42.25 149.586 42.25C148.753 42.25 147.919 42.3333 147.086 42.5C136.586 44 126.669 47.8333 117.336 54C108.003 60.1667 100.086 68.25 93.5859 78.25C87.2526 88.0833 83.0859 99.4167 81.0859 112.25C80.9193 113.417 80.7526 114.583 80.5859 115.75C80.5859 116.917 80.5859 118 80.5859 119C80.5859 126.833 82.2526 134 85.5859 140.5C88.9193 146.833 92.8359 152.75 97.3359 158.25C102.003 163.75 106.419 169.083 110.586 174.25C114.753 179.25 117.586 184.25 119.086 189.25C122.419 188.583 125.669 188.167 128.836 188C132.003 187.833 135.086 187.833 138.086 188C140.419 188.333 141.586 189 141.586 190C141.586 191 139.919 191.5 136.586 191.5C134.253 191.5 131.669 191.667 128.836 192C126.003 192.167 123.003 192.667 119.836 193.5C120.003 194 120.086 194.5 120.086 195C120.086 195.5 120.086 195.917 120.086 196.25C120.086 197.917 119.836 199.667 119.336 201.5C117.169 208.167 113.253 213.083 107.586 216.25C101.919 219.417 96.1693 221 90.3359 221C84.6693 221 79.9193 219.833 76.0859 217.5C74.7526 216.833 73.5026 215.917 72.3359 214.75C70.1693 215.917 68.0026 217.25 65.8359 218.75C63.5026 220.25 61.2526 221.75 59.0859 223.25C58.4193 223.75 57.8359 224 57.3359 224ZM88.0859 216.5C92.9193 216.5 97.6693 214.917 102.336 211.75C107.003 208.75 109.586 203.667 110.086 196.5C99.0859 200.333 87.7526 205.667 76.0859 212.5C78.7526 215.167 82.7526 216.5 88.0859 216.5ZM157.598 246C155.931 246 154.181 244.917 152.348 242.75C150.681 240.75 149.098 237.917 147.598 234.25C145.098 228.25 143.348 221.917 142.348 215.25C141.348 208.75 140.848 202.167 140.848 195.5C140.848 188.167 141.348 181 142.348 174C143.348 167 144.431 160.667 145.598 155C146.431 151 147.431 146.75 148.598 142.25C149.764 137.75 150.848 134.167 151.848 131.5C150.848 131.667 149.264 132.25 147.098 133.25C144.931 134.25 142.681 135.25 140.348 136.25C138.181 137.25 136.264 137.75 134.598 137.75C132.098 137.75 130.848 136.333 130.848 133.5C130.848 132 131.348 130.667 132.348 129.5C133.514 128.333 134.931 127.417 136.598 126.75C139.931 125.25 143.598 124.167 147.598 123.5C151.598 122.667 154.264 121.833 155.598 121L162.098 104.5C162.764 102.833 163.931 100.167 165.598 96.5C167.431 92.6667 169.514 88.5833 171.848 84.25C174.348 79.9167 176.764 76 179.098 72.5C180.931 69.8333 182.681 67.75 184.348 66.25C186.014 64.5833 187.848 63.75 189.848 63.75C192.848 63.75 194.348 64.9167 194.348 67.25C194.348 68.5833 193.764 70.5833 192.598 73.25C191.598 75.9167 189.681 79.4167 186.848 83.75C183.681 88.75 180.431 93.75 177.098 98.75C173.931 103.583 171.181 108.667 168.848 114C168.681 114.667 168.264 115.75 167.598 117.25C167.098 118.583 166.681 119.417 166.348 119.75L171.348 119C172.681 118.833 174.181 118.75 175.848 118.75C177.514 118.583 179.348 118.5 181.348 118.5C184.181 118.5 186.848 118.667 189.348 119C192.014 119.167 194.181 119.583 195.848 120.25C196.681 120.583 197.431 121 198.098 121.5C198.931 121.833 199.348 122.167 199.348 122.5C199.348 123.167 197.181 123.5 192.848 123.5C190.348 123.5 186.764 123.917 182.098 124.75C177.598 125.583 172.431 126.917 166.598 128.75C163.764 129.583 161.848 130.75 160.848 132.25C159.848 133.75 158.514 137.333 156.848 143C154.348 152 152.348 160.667 150.848 169C149.348 177.167 148.181 185.5 147.348 194C147.181 195.667 147.014 197.417 146.848 199.25C146.848 201.083 146.848 203.083 146.848 205.25C146.848 210.917 147.348 216.833 148.348 223C149.514 229.167 151.181 234.5 153.348 239C153.848 240 154.348 240.917 154.848 241.75C155.514 242.583 156.264 243.167 157.098 243.5C158.264 244 158.848 244.583 158.848 245.25C158.848 245.75 158.431 246 157.598 246ZM186.59 204C183.59 204 181.423 202.75 180.09 200.25C178.757 197.583 178.09 194.5 178.09 191C178.09 186.5 178.84 181.25 180.34 175.25C182.007 169.25 184.173 163.083 186.84 156.75C189.507 150.25 192.507 144.333 195.84 139C199.34 133.5 203.007 129.083 206.84 125.75C210.673 122.25 214.423 120.5 218.09 120.5C221.423 120.5 224.257 122 226.59 125C229.09 127.833 230.34 131.083 230.34 134.75C230.34 136.917 230.007 138.75 229.34 140.25C228.673 141.583 227.923 142.25 227.09 142.25C226.423 142.25 225.84 141.75 225.34 140.75C223.673 136.917 221.84 134.167 219.84 132.5C218.007 130.833 216.09 130 214.09 130C210.757 130 207.423 131.917 204.09 135.75C200.923 139.417 198.34 143.667 196.34 148.5C194.673 152.167 193.09 156.583 191.59 161.75C190.257 166.75 189.09 171.75 188.09 176.75C187.257 181.583 186.84 185.583 186.84 188.75C186.84 194.417 188.173 197.25 190.84 197.25C194.173 197.25 198.423 193.583 203.59 186.25C207.423 180.917 210.84 174.75 213.84 167.75C217.007 160.75 219.673 154.667 221.84 149.5C222.673 147.833 223.59 146.75 224.59 146.25C225.59 145.75 226.507 145.5 227.34 145.5C229.34 145.5 230.59 146.333 231.09 148C231.757 149.667 232.09 151.083 232.09 152.25C232.09 156.583 231.673 160.5 230.84 164C230.007 167.333 229.59 171.417 229.59 176.25C229.59 179.75 229.84 183 230.34 186C231.007 188.833 232.09 190.25 233.59 190.25C235.423 190.25 237.757 187.917 240.59 183.25C241.257 181.917 242.257 181.25 243.59 181.25C245.09 181.25 245.84 182 245.84 183.5C245.84 185.667 244.34 188 241.34 190.5C238.34 192.833 235.34 194 232.34 194C228.34 194 225.507 192.333 223.84 189C221.007 183.5 219.59 178.583 219.59 174.25C219.59 169.75 219.507 166.667 219.34 165C218.507 167 216.923 170.167 214.59 174.5C212.257 178.667 209.507 183.083 206.34 187.75C203.173 192.25 199.84 196.083 196.34 199.25C192.84 202.417 189.59 204 186.59 204ZM276.764 218.5C271.43 218.5 267.347 216 264.514 211C261.68 206.167 260.264 200.833 260.264 195C260.264 189.5 261.18 183.75 263.014 177.75C264.847 171.75 267.097 165.833 269.764 160C272.597 154.167 275.514 148.833 278.514 144C275.514 145.167 272.68 145.75 270.014 145.75C268.68 145.75 267.514 145.583 266.514 145.25C265.514 144.917 264.68 144.667 264.014 144.5C263.18 146.5 261.68 149.833 259.514 154.5C257.514 159.167 255.347 164.083 253.014 169.25C250.847 174.25 248.93 178.5 247.264 182C244.597 187.667 242.264 190.5 240.264 190.5C239.264 190.5 238.764 189.833 238.764 188.5C238.764 187.5 239.18 186.167 240.014 184.5C243.847 177.333 247.43 170.25 250.764 163.25C254.264 156.25 257.43 149.5 260.264 143C259.93 142.167 259.597 141.083 259.264 139.75C258.93 138.25 258.764 136.667 258.764 135C258.764 133.167 258.93 131.25 259.264 129.25C259.764 127.083 260.43 125 261.264 123C261.764 121.833 262.68 120.167 264.014 118C265.347 115.667 266.847 113.583 268.514 111.75C270.18 109.75 271.764 108.75 273.264 108.75C276.097 108.75 277.514 110.25 277.514 113.25C277.514 116.083 276.597 119.333 274.764 123C273.097 126.667 271.347 130.083 269.514 133.25C267.68 136.25 266.764 138.5 266.764 140C266.764 141.333 267.43 142 268.764 142C270.597 142 272.847 141.083 275.514 139.25C278.347 137.25 280.597 135.417 282.264 133.75C283.097 132.917 284.43 131.667 286.264 130C288.097 128.167 289.847 127.25 291.514 127.25C293.18 127.25 294.264 127.75 294.764 128.75C295.43 129.75 295.764 130.917 295.764 132.25C295.764 133.75 295.097 135.667 293.764 138C292.43 140.167 290.847 142.333 289.014 144.5C287.347 146.667 285.93 148.5 284.764 150C282.43 153.5 279.764 157.917 276.764 163.25C273.764 168.583 271.18 174.333 269.014 180.5C266.847 186.5 265.764 192.25 265.764 197.75C265.764 201.417 266.68 205.25 268.514 209.25C270.347 213.25 272.847 215.25 276.014 215.25C278.847 215.25 281.847 213.75 285.014 210.75C288.347 207.75 291.43 204.167 294.264 200C297.264 195.833 299.847 191.833 302.014 188C304.347 184.167 305.93 181.5 306.764 180C307.097 179.167 307.68 178.167 308.514 177C309.347 175.667 310.347 175 311.514 175C312.514 175 313.014 175.5 313.014 176.5C313.014 177.333 312.764 178.333 312.264 179.5C311.93 180.5 311.597 181.417 311.264 182.25C309.764 185.75 307.93 189.417 305.764 193.25C303.597 197.083 302.097 199.667 301.264 201C298.93 204.833 295.43 208.667 290.764 212.5C286.264 216.5 281.597 218.5 276.764 218.5ZM329.473 246C327.806 246 326.056 244.917 324.223 242.75C322.556 240.75 320.973 237.917 319.473 234.25C316.973 228.25 315.223 221.917 314.223 215.25C313.223 208.75 312.723 202.167 312.723 195.5C312.723 188.167 313.223 181 314.223 174C315.223 167 316.306 160.667 317.473 155C318.306 151 319.306 146.75 320.473 142.25C321.639 137.75 322.723 134.167 323.723 131.5C322.723 131.667 321.139 132.25 318.973 133.25C316.806 134.25 314.556 135.25 312.223 136.25C310.056 137.25 308.139 137.75 306.473 137.75C303.973 137.75 302.723 136.333 302.723 133.5C302.723 132 303.223 130.667 304.223 129.5C305.389 128.333 306.806 127.417 308.473 126.75C311.806 125.25 315.473 124.167 319.473 123.5C323.473 122.667 326.139 121.833 327.473 121L333.973 104.5C334.639 102.833 335.806 100.167 337.473 96.5C339.306 92.6667 341.389 88.5833 343.723 84.25C346.223 79.9167 348.639 76 350.973 72.5C352.806 69.8333 354.556 67.75 356.223 66.25C357.889 64.5833 359.723 63.75 361.723 63.75C364.723 63.75 366.223 64.9167 366.223 67.25C366.223 68.5833 365.639 70.5833 364.473 73.25C363.473 75.9167 361.556 79.4167 358.723 83.75C355.556 88.75 352.306 93.75 348.973 98.75C345.806 103.583 343.056 108.667 340.723 114C340.556 114.667 340.139 115.75 339.473 117.25C338.973 118.583 338.556 119.417 338.223 119.75L343.223 119C344.556 118.833 346.056 118.75 347.723 118.75C349.389 118.583 351.223 118.5 353.223 118.5C356.056 118.5 358.723 118.667 361.223 119C363.889 119.167 366.056 119.583 367.723 120.25C368.556 120.583 369.306 121 369.973 121.5C370.806 121.833 371.223 122.167 371.223 122.5C371.223 123.167 369.056 123.5 364.723 123.5C362.223 123.5 358.639 123.917 353.973 124.75C349.473 125.583 344.306 126.917 338.473 128.75C335.639 129.583 333.723 130.75 332.723 132.25C331.723 133.75 330.389 137.333 328.723 143C326.223 152 324.223 160.667 322.723 169C321.223 177.167 320.056 185.5 319.223 194C319.056 195.667 318.889 197.417 318.723 199.25C318.723 201.083 318.723 203.083 318.723 205.25C318.723 210.917 319.223 216.833 320.223 223C321.389 229.167 323.056 234.5 325.223 239C325.723 240 326.223 240.917 326.723 241.75C327.389 242.583 328.139 243.167 328.973 243.5C330.139 244 330.723 244.583 330.723 245.25C330.723 245.75 330.306 246 329.473 246ZM351.965 304.25C345.465 304.25 340.215 302.5 336.215 299C332.215 295.667 330.215 291.167 330.215 285.5C330.215 280.5 331.632 275.5 334.465 270.5C337.132 265.667 340.465 261 344.465 256.5C348.632 252.167 352.798 248.333 356.965 245C364.298 239.167 372.965 233.667 382.965 228.5C393.132 223.333 404.548 219.417 417.215 216.75C417.382 214.917 417.465 213 417.465 211C417.465 209.167 417.465 207.333 417.465 205.5C417.465 192 416.548 179.75 414.715 168.75C412.882 157.583 410.798 148 408.465 140C401.798 156.5 395.882 170.25 390.715 181.25C385.548 192.083 382.715 201.167 382.215 208.5C382.048 209.667 381.298 210.917 379.965 212.25C378.798 213.75 377.465 214.5 375.965 214.5C374.965 214.5 373.965 213.917 372.965 212.75C372.132 211.75 371.548 209.917 371.215 207.25C371.215 206.583 371.132 205.667 370.965 204.5C370.965 203.333 370.965 201.25 370.965 198.25C370.965 195.25 370.965 190.75 370.965 184.75C370.965 179.417 370.798 174 370.465 168.5C370.298 162.833 369.715 157.583 368.715 152.75C367.715 147.917 366.215 144 364.215 141C362.382 138 359.798 136.5 356.465 136.5C353.798 136.5 351.298 137.5 348.965 139.5C346.798 141.5 344.965 143.5 343.465 145.5C341.965 147.333 340.798 148.25 339.965 148.25C339.298 148.25 338.965 148 338.965 147.5C338.965 147.167 339.215 146.667 339.715 146C340.048 145.167 340.382 144.5 340.715 144C342.215 141.833 344.132 139.667 346.465 137.5C348.965 135.333 351.548 133.5 354.215 132C357.048 130.333 359.548 129.5 361.715 129.5C366.215 129.5 369.715 131.833 372.215 136.5C374.715 141 376.465 146.75 377.465 153.75C378.632 160.75 379.215 167.917 379.215 175.25C379.215 178.417 379.048 182.25 378.715 186.75C378.382 191.25 377.965 195.083 377.465 198.25C380.798 192.083 385.048 183.5 390.215 172.5C395.382 161.5 401.048 149.083 407.215 135.25L404.965 128.75V128C404.965 126.333 405.465 125.083 406.465 124.25C407.632 123.417 408.798 123 409.965 123C410.965 123 411.965 123.25 412.965 123.75C413.965 124.25 414.632 125 414.965 126C416.965 130.5 418.632 136.667 419.965 144.5C421.465 152.333 422.548 160.833 423.215 170C424.048 179 424.465 187.917 424.465 196.75C424.465 203.417 424.215 209.667 423.715 215.5C427.882 214.667 432.298 214 436.965 213.5C441.798 213 445.965 212.75 449.465 212.75C451.632 212.75 452.715 213.083 452.715 213.75C452.715 215.083 450.965 215.917 447.465 216.25C443.465 216.583 439.382 217 435.215 217.5C431.215 218.167 427.132 219 422.965 220C419.465 239.167 413.965 254.5 406.465 266C399.132 277.667 391.548 286.417 383.715 292.25C378.048 296.417 372.465 299.417 366.965 301.25C361.632 303.25 356.632 304.25 351.965 304.25ZM349.965 299C352.798 299 356.048 298.417 359.715 297.25C363.548 296.083 367.548 294.25 371.715 291.75C385.048 283.917 395.382 274 402.715 262C410.048 250.167 414.715 236.667 416.715 221.5C406.882 224.167 396.965 228 386.965 233C377.132 238.167 368.132 244.167 359.965 251C356.298 254.167 352.632 257.75 348.965 261.75C345.465 265.75 342.548 269.833 340.215 274C337.882 278.333 336.715 282.5 336.715 286.5C336.715 290.333 337.882 293.333 340.215 295.5C342.548 297.833 345.798 299 349.965 299Z" fill="url(#paint0_linear_4_2)" fill-opacity="0.6"/>
</g>
</g>
<defs>
<filter id="filter0_d_4_2" x="55.0859" y="38.25" width="404.629" height="277" filterUnits="userSpaceOnUse" color-interpolation-filters="sRGB">
<feFlood flood-opacity="0" result="BackgroundImageFix"/>
<feColorMatrix in="SourceAlpha" type="matrix" values="0 0 0 0 0 0 0 0 0 0 0 0 0 0 0 0 0 0 127 0" result="hardAlpha"/>
<feOffset dy="4"/>
<feGaussianBlur stdDeviation="2"/>
<feComposite in2="hardAlpha" operator="out"/>
<feColorMatrix type="matrix" values="0 0 0 0 0 0 0 0 0 0 0 0 0 0 0 0 0 0 0.25 0"/>
<feBlend mode="normal" in2="BackgroundImageFix" result="effect1_dropShadow_4_2"/>
<feBlend mode="normal" in="SourceGraphic" in2="effect1_dropShadow_4_2" result="shape"/>
</filter>
<filter id="filter1_d_4_2" x="54.3859" y="35.25" width="400.029" height="274.7" filterUnits="userSpaceOnUse" color-interpolation-filters="sRGB">
<feFlood flood-opacity="0" result="BackgroundImageFix"/>
<feColorMatrix in="SourceAlpha" type="matrix" values="0 0 0 0 0 0 0 0 0 0 0 0 0 0 0 0 0 0 127 0" result="hardAlpha"/>
<feOffset dy="4"/>
<feGaussianBlur stdDeviation="0.85"/>
<feComposite in2="hardAlpha" operator="out"/>
<feColorMatrix type="matrix" values="0 0 0 0 0 0 0 0 0 0 0 0 0 0 0 0 0 0 0.45 0"/>
<feBlend mode="normal" in2="BackgroundImageFix" result="effect1_dropShadow_4_2"/>
<feBlend mode="normal" in="SourceGraphic" in2="effect1_dropShadow_4_2" result="shape"/>
</filter>
<linearGradient id="paint0_linear_4_2" x1="248" y1="-12" x2="248" y2="323" gradientUnits="userSpaceOnUse">
<stop stop-opacity="0"/>
<stop offset="0.899038" stop-color="#FAE84B"/>
</linearGradient>
<clipPath id="clip0_4_2">
<rect width="500" height="314" fill="white"/>
</clipPath>
</defs>
</svg>
