<svg width="500" height="500" viewBox="0 0 500 500" fill="none" xmlns="http://www.w3.org/2000/svg">
<g clip-path="url(#clip0_5_2)">
<rect width="500" height="500" rx="250" fill="#EF2A68"/>
<g filter="url(#filter0_d_5_2)">
<path d="M137.988 441C136.322 441 135.488 439.667 135.488 437C135.488 434.667 136.322 431.833 137.988 428.5C139.655 425.167 141.822 422.5 144.488 420.5C147.155 418.833 149.988 417 152.988 415C155.655 413.333 158.322 411.833 160.988 410.5C160.655 409.833 160.488 408.667 160.488 407C160.488 404.333 161.322 403 162.988 403C163.988 403 165.488 404.167 167.488 406.5C193.488 392.167 218.822 381.667 243.488 375V373.5C243.488 364.167 240.988 355.5 235.988 347.5C231.322 339.5 225.322 331.333 217.988 323C210.655 314.667 203.155 305.5 195.488 295.5C188.155 285.5 181.488 274.167 175.488 261.5C169.822 248.5 166.155 233.333 164.488 216C164.155 214 163.988 212 163.988 210C163.988 208 163.988 206 163.988 204C163.988 182.667 168.822 163.333 178.488 146C188.155 128.667 200.655 113.833 215.988 101.5C231.655 88.8333 248.488 79 266.488 72C280.822 66.3333 297.155 63.5 315.488 63.5C322.155 63.5 328.488 64 334.488 65C352.155 68.3333 364.488 74.1667 371.488 82.5C378.488 90.8333 381.988 99.1667 381.988 107.5C381.988 113.833 380.322 119.5 376.988 124.5C373.655 129.5 371.322 132 369.988 132C368.988 132 368.488 131.333 368.488 130C368.488 129.333 368.655 128.333 368.988 127C369.655 125.333 370.155 123.667 370.488 122C371.488 119.333 372.155 117 372.488 115C372.822 113 372.988 111 372.988 109C372.988 98.3333 367.988 90.5 357.988 85.5C348.322 80.1666 337.988 77.5 326.988 77.5C325.655 77.5 324.155 77.5 322.488 77.5C320.822 77.5 319.155 77.6666 317.488 78C296.488 81 276.655 88.6666 257.988 101C239.322 113.333 223.488 129.5 210.488 149.5C197.822 169.167 189.488 191.833 185.488 217.5C185.155 219.833 184.822 222.167 184.488 224.5C184.488 226.833 184.488 229 184.488 231C184.488 246.667 187.822 261 194.488 274C201.155 286.667 208.988 298.5 217.988 309.5C227.322 320.5 236.155 331.167 244.488 341.5C252.822 351.5 258.488 361.5 261.488 371.5C268.155 370.167 274.655 369.333 280.988 369C287.322 368.667 293.488 368.667 299.488 369C304.155 369.667 306.488 371 306.488 373C306.488 375 303.155 376 296.488 376C291.822 376 286.655 376.333 280.988 377C275.322 377.333 269.322 378.333 262.988 380C263.322 381 263.488 382 263.488 383C263.488 384 263.488 384.833 263.488 385.5C263.488 388.833 262.988 392.333 261.988 396C257.655 409.333 249.822 419.167 238.488 425.5C227.155 431.833 215.655 435 203.988 435C192.655 435 183.155 432.667 175.488 428C172.822 426.667 170.322 424.833 167.988 422.5C163.655 424.833 159.322 427.5 154.988 430.5C150.322 433.5 145.822 436.5 141.488 439.5C140.155 440.5 138.988 441 137.988 441ZM199.488 426C209.155 426 218.655 422.833 227.988 416.5C237.322 410.5 242.488 400.333 243.488 386C221.488 393.667 198.822 404.333 175.488 418C180.822 423.333 188.822 426 199.488 426Z" fill="#FAE84B"/>
</g>
<g filter="url(#filter1_d_5_2)">
<path d="M133.488 435C131.822 435 130.988 433.667 130.988 431C130.988 428.667 131.822 425.833 133.488 422.5C135.155 419.167 137.322 416.5 139.988 414.5C142.655 412.833 145.488 411 148.488 409C151.155 407.333 153.822 405.833 156.488 404.5C156.155 403.833 155.988 402.667 155.988 401C155.988 398.333 156.822 397 158.488 397C159.488 397 160.988 398.167 162.988 400.5C188.988 386.167 214.322 375.667 238.988 369V367.5C238.988 358.167 236.488 349.5 231.488 341.5C226.822 333.5 220.822 325.333 213.488 317C206.155 308.667 198.655 299.5 190.988 289.5C183.655 279.5 176.988 268.167 170.988 255.5C165.322 242.5 161.655 227.333 159.988 210C159.655 208 159.488 206 159.488 204C159.488 202 159.488 200 159.488 198C159.488 176.667 164.322 157.333 173.988 140C183.655 122.667 196.155 107.833 211.488 95.5C227.155 82.8333 243.988 73 261.988 66C276.322 60.3333 292.655 57.5 310.988 57.5C317.655 57.5 323.988 58 329.988 59C347.655 62.3333 359.988 68.1667 366.988 76.5C373.988 84.8333 377.488 93.1667 377.488 101.5C377.488 107.833 375.822 113.5 372.488 118.5C369.155 123.5 366.822 126 365.488 126C364.488 126 363.988 125.333 363.988 124C363.988 123.333 364.155 122.333 364.488 121C365.155 119.333 365.655 117.667 365.988 116C366.988 113.333 367.655 111 367.988 109C368.322 107 368.488 105 368.488 103C368.488 92.3333 363.488 84.5 353.488 79.5C343.822 74.1666 333.488 71.5 322.488 71.5C321.155 71.5 319.655 71.5 317.988 71.5C316.322 71.5 314.655 71.6666 312.988 72C291.988 75 272.155 82.6666 253.488 95C234.822 107.333 218.988 123.5 205.988 143.5C193.322 163.167 184.988 185.833 180.988 211.5C180.655 213.833 180.322 216.167 179.988 218.5C179.988 220.833 179.988 223 179.988 225C179.988 240.667 183.322 255 189.988 268C196.655 280.667 204.488 292.5 213.488 303.5C222.822 314.5 231.655 325.167 239.988 335.5C248.322 345.5 253.988 355.5 256.988 365.5C263.655 364.167 270.155 363.333 276.488 363C282.822 362.667 288.988 362.667 294.988 363C299.655 363.667 301.988 365 301.988 367C301.988 369 298.655 370 291.988 370C287.322 370 282.155 370.333 276.488 371C270.822 371.333 264.822 372.333 258.488 374C258.822 375 258.988 376 258.988 377C258.988 378 258.988 378.833 258.988 379.5C258.988 382.833 258.488 386.333 257.488 390C253.155 403.333 245.322 413.167 233.988 419.5C222.655 425.833 211.155 429 199.488 429C188.155 429 178.655 426.667 170.988 422C168.322 420.667 165.822 418.833 163.488 416.5C159.155 418.833 154.822 421.5 150.488 424.5C145.822 427.5 141.322 430.5 136.988 433.5C135.655 434.5 134.488 435 133.488 435ZM194.988 420C204.655 420 214.155 416.833 223.488 410.5C232.822 404.5 237.988 394.333 238.988 380C216.988 387.667 194.322 398.333 170.988 412C176.322 417.333 184.322 420 194.988 420Z" fill="white"/>
<path d="M133.488 435C131.822 435 130.988 433.667 130.988 431C130.988 428.667 131.822 425.833 133.488 422.5C135.155 419.167 137.322 416.5 139.988 414.5C142.655 412.833 145.488 411 148.488 409C151.155 407.333 153.822 405.833 156.488 404.5C156.155 403.833 155.988 402.667 155.988 401C155.988 398.333 156.822 397 158.488 397C159.488 397 160.988 398.167 162.988 400.5C188.988 386.167 214.322 375.667 238.988 369V367.5C238.988 358.167 236.488 349.5 231.488 341.5C226.822 333.5 220.822 325.333 213.488 317C206.155 308.667 198.655 299.5 190.988 289.5C183.655 279.5 176.988 268.167 170.988 255.5C165.322 242.5 161.655 227.333 159.988 210C159.655 208 159.488 206 159.488 204C159.488 202 159.488 200 159.488 198C159.488 176.667 164.322 157.333 173.988 140C183.655 122.667 196.155 107.833 211.488 95.5C227.155 82.8333 243.988 73 261.988 66C276.322 60.3333 292.655 57.5 310.988 57.5C317.655 57.5 323.988 58 329.988 59C347.655 62.3333 359.988 68.1667 366.988 76.5C373.988 84.8333 377.488 93.1667 377.488 101.5C377.488 107.833 375.822 113.5 372.488 118.5C369.155 123.5 366.822 126 365.488 126C364.488 126 363.988 125.333 363.988 124C363.988 123.333 364.155 122.333 364.488 121C365.155 119.333 365.655 117.667 365.988 116C366.988 113.333 367.655 111 367.988 109C368.322 107 368.488 105 368.488 103C368.488 92.3333 363.488 84.5 353.488 79.5C343.822 74.1666 333.488 71.5 322.488 71.5C321.155 71.5 319.655 71.5 317.988 71.5C316.322 71.5 314.655 71.6666 312.988 72C291.988 75 272.155 82.6666 253.488 95C234.822 107.333 218.988 123.5 205.988 143.5C193.322 163.167 184.988 185.833 180.988 211.5C180.655 213.833 180.322 216.167 179.988 218.5C179.988 220.833 179.988 223 179.988 225C179.988 240.667 183.322 255 189.988 268C196.655 280.667 204.488 292.5 213.488 303.5C222.822 314.5 231.655 325.167 239.988 335.5C248.322 345.5 253.988 355.5 256.988 365.5C263.655 364.167 270.155 363.333 276.488 363C282.822 362.667 288.988 362.667 294.988 363C299.655 363.667 301.988 365 301.988 367C301.988 369 298.655 370 291.988 370C287.322 370 282.155 370.333 276.488 371C270.822 371.333 264.822 372.333 258.488 374C258.822 375 258.988 376 258.988 377C258.988 378 258.988 378.833 258.988 379.5C258.988 382.833 258.488 386.333 257.488 390C253.155 403.333 245.322 413.167 233.988 419.5C222.655 425.833 211.155 429 199.488 429C188.155 429 178.655 426.667 170.988 422C168.322 420.667 165.822 418.833 163.488 416.5C159.155 418.833 154.822 421.5 150.488 424.5C145.822 427.5 141.322 430.5 136.988 433.5C135.655 434.5 134.488 435 133.488 435ZM194.988 420C204.655 420 214.155 416.833 223.488 410.5C232.822 404.5 237.988 394.333 238.988 380C216.988 387.667 194.322 398.333 170.988 412C176.322 417.333 184.322 420 194.988 420Z" fill="url(#paint0_linear_5_2)" fill-opacity="0.2"/>
</g>
</g>
<defs>
<filter id="filter0_d_5_2" x="131.488" y="63.5" width="254.5" height="385.5" filterUnits="userSpaceOnUse" color-interpolation-filters="sRGB">
<feFlood flood-opacity="0" result="BackgroundImageFix"/>
<feColorMatrix in="SourceAlpha" type="matrix" values="0 0 0 0 0 0 0 0 0 0 0 0 0 0 0 0 0 0 127 0" result="hardAlpha"/>
<feOffset dy="4"/>
<feGaussianBlur stdDeviation="2"/>
<feComposite in2="hardAlpha" operator="out"/>
<feColorMatrix type="matrix" values="0 0 0 0 0 0 0 0 0 0 0 0 0 0 0 0 0 0 0.25 0"/>
<feBlend mode="normal" in2="BackgroundImageFix" result="effect1_dropShadow_5_2"/>
<feBlend mode="normal" in="SourceGraphic" in2="effect1_dropShadow_5_2" result="shape"/>
</filter>
<filter id="filter1_d_5_2" x="129.288" y="57.5" width="249.9" height="383.2" filterUnits="userSpaceOnUse" color-interpolation-filters="sRGB">
<feFlood flood-opacity="0" result="BackgroundImageFix"/>
<feColorMatrix in="SourceAlpha" type="matrix" values="0 0 0 0 0 0 0 0 0 0 0 0 0 0 0 0 0 0 127 0" result="hardAlpha"/>
<feOffset dy="4"/>
<feGaussianBlur stdDeviation="0.85"/>
<feComposite in2="hardAlpha" operator="out"/>
<feColorMatrix type="matrix" values="0 0 0 0 0 0 0 0 0 0 0 0 0 0 0 0 0 0 0.45 0"/>
<feBlend mode="normal" in2="BackgroundImageFix" result="effect1_dropShadow_5_2"/>
<feBlend mode="normal" in="SourceGraphic" in2="effect1_dropShadow_5_2" result="shape"/>
</filter>
<linearGradient id="paint0_linear_5_2" x1="215.5" y1="-36" x2="215.5" y2="462" gradientUnits="userSpaceOnUse">
<stop stop-opacity="0"/>
<stop offset="0.899038" stop-color="#FAE84B"/>
</linearGradient>
<clipPath id="clip0_5_2">
<rect width="500" height="500" rx="250" fill="white"/>
</clipPath>
</defs>
</svg>
